<svg width="70" height="46" viewBox="0 0 70 46" fill="none" xmlns="http://www.w3.org/2000/svg">
<g clip-path="url(#clip0)">
<path d="M6.52361 43.4497C4.23438 43.4497 2.37878 41.5474 2.37878 39.2003C2.37878 36.8535 4.23438 34.9509 6.52388 34.9509C8.81312 34.9509 10.6684 36.8535 10.6684 39.2003C10.6684 41.5474 8.81312 43.4497 6.52388 43.4497H6.52361ZM10.6817 43.9887C10.6817 44.3779 11.3466 45.471 12.1612 45.471H12.6887C12.8934 45.471 13.0605 45.3031 13.0605 45.0981V33.4688H13.0586C13.0535 33.3738 13.0123 33.2843 12.9436 33.2187C12.8748 33.1531 12.7836 33.1164 12.6887 33.1161H11.054C10.8562 33.1161 10.6948 33.2731 10.6836 33.4688H10.6817V34.4139C9.6804 33.1765 8.10105 32.6629 6.51737 32.6629C2.91771 32.6629 0 35.5897 0 39.2006C0 42.8115 2.91771 45.7383 6.51737 45.7383C8.10105 45.7383 9.82693 45.1221 10.6817 43.9873V43.9892V43.9887ZM16.9665 42.3234C18.0577 43.0815 19.249 43.4497 20.3936 43.4497C21.4845 43.4497 22.6115 42.8825 22.6115 41.8955C22.6115 40.5781 20.1548 40.3729 18.6116 39.8468C17.0675 39.3206 15.7378 38.2327 15.7378 36.4711C15.7378 33.7759 18.1323 32.6626 20.3673 32.6626C21.7833 32.6626 23.244 33.1308 24.1914 33.802C24.5178 34.0497 24.3189 34.3347 24.3189 34.3347L23.4147 35.6297C23.3132 35.7756 23.1026 35.8921 22.8804 35.7438C22.2712 35.3399 21.5928 34.9506 20.367 34.9506C18.8498 34.9506 18.1825 35.5824 18.1825 36.3652C18.1825 37.3042 19.2498 37.5993 20.5 37.9194C22.679 38.5081 25.0562 39.2166 25.0562 41.8958C25.0562 44.2707 22.8413 45.7383 20.3936 45.7383C18.5388 45.7383 16.9595 45.2078 15.635 44.2331C15.3592 43.956 15.5519 43.6988 15.5519 43.6988L16.4515 42.4102C16.6347 42.1691 16.8653 42.2535 16.9665 42.3234ZM37.3162 43.9889C37.3162 44.3779 37.9808 45.471 38.7951 45.471H39.3229C39.5275 45.471 39.695 45.3031 39.695 45.0981V33.4688H39.6928C39.6875 33.3738 39.6463 33.2844 39.5776 33.2189C39.5089 33.1533 39.4178 33.1165 39.3229 33.1161H37.6882C37.4901 33.1161 37.3289 33.2731 37.3181 33.4688H37.3162V34.4139C36.3146 33.1765 34.7352 32.6629 33.1518 32.6629C29.5522 32.6629 26.6339 35.5897 26.6339 39.2003C26.6339 42.8109 29.5522 45.738 33.1518 45.738C34.7352 45.738 36.4611 45.1218 37.3159 43.987V43.9889H37.3162ZM33.1581 43.45C30.8686 43.45 29.013 41.5474 29.013 39.2003C29.013 36.8535 30.8686 34.9509 33.1581 34.9509C35.447 34.9509 37.3029 36.8535 37.3029 39.2003C37.3029 41.5474 35.447 43.4497 33.1581 43.4497V43.45ZM54.3416 44.3885L54.3411 38.3712C54.3411 34.9792 52.2076 32.6906 48.8052 32.6906C47.1814 32.6906 45.8528 33.6327 45.3825 34.4419V34.4305L45.3798 34.4397C45.3787 33.621 44.7166 33.1441 43.9003 33.1441H43.3755C43.1706 33.1441 43.0035 33.3123 43.0035 33.5175V45.1471H43.0056C43.0162 45.3431 43.1779 45.5001 43.3755 45.5001H45.0102C45.0352 45.5001 45.0599 45.4971 45.0835 45.4928C45.0943 45.4903 45.1044 45.486 45.1149 45.483C45.1274 45.4794 45.1399 45.4765 45.1513 45.4716C45.1662 45.4656 45.1793 45.4574 45.1928 45.4498C45.1993 45.4457 45.2064 45.443 45.2129 45.4389C45.229 45.4278 45.2442 45.4157 45.2585 45.4024C45.2609 45.4 45.2639 45.3983 45.2661 45.3962C45.3345 45.3309 45.3753 45.2417 45.3801 45.1471H45.3825V38.2779C45.3825 36.4561 46.8549 34.9789 48.6715 34.9789C50.4877 34.9789 51.9604 36.4561 51.9604 38.2779L51.9615 44.02L51.962 44.0178C51.962 44.023 51.9631 44.0284 51.9631 44.0336V45.1471H51.9653C51.9761 45.3431 52.1373 45.5001 52.3351 45.5001H53.9698C53.9951 45.5001 54.0192 45.4971 54.0431 45.4928C54.0529 45.4906 54.0618 45.4865 54.0711 45.4843C54.0846 45.4803 54.0982 45.4767 54.1112 45.4716C54.1245 45.4661 54.1367 45.4582 54.1492 45.4511C54.1571 45.4471 54.1652 45.4438 54.1726 45.4389C54.1878 45.4285 54.2016 45.4168 54.2152 45.4049C54.2187 45.4021 54.2225 45.3994 54.226 45.3959C54.2412 45.3812 54.2548 45.3649 54.2675 45.348C54.3105 45.2899 54.3356 45.2204 54.3397 45.1482L54.34 45.1471H54.3419V44.3885H54.3416ZM67.0906 43.9889C67.0906 44.3779 67.7546 45.471 68.5695 45.471H69.0974C69.3017 45.471 69.4694 45.3031 69.4694 45.0981V33.4688H69.4675C69.4622 33.3738 69.4209 33.2844 69.3521 33.2189C69.2833 33.1533 69.1922 33.1165 69.0974 33.1161H67.4629C67.368 33.1163 67.2767 33.153 67.2079 33.2186C67.1391 33.2842 67.0979 33.3737 67.0928 33.4688H67.0906V34.4139C66.0885 33.1765 64.5097 32.6629 62.9257 32.6629C59.3266 32.6629 56.4083 35.5897 56.4083 39.2003C56.4083 42.8109 59.3266 45.738 62.9257 45.738C64.5097 45.738 66.2353 45.1218 67.0898 43.987L67.0906 43.9889ZM62.9328 43.45C60.6432 43.45 58.7877 41.5474 58.7877 39.2003C58.7877 36.8535 60.6432 34.9509 62.9328 34.9509C65.2212 34.9509 67.0768 36.8535 67.0768 39.2003C67.0768 41.5474 65.2212 43.4497 62.9328 43.4497V43.45Z" fill="#283343"/>
<path d="M42.2603 12.8903C39.1054 12.8903 36.5483 15.4552 36.5483 18.6191C36.5483 21.7833 39.1054 24.3487 42.2603 24.3487C45.4146 24.3487 47.9717 21.7833 47.9717 18.6191C47.9717 15.4552 45.4146 12.8903 42.2603 12.8903ZM27.4207 12.8906C24.2663 12.8909 21.709 15.4552 21.709 18.6194C21.709 21.7833 24.2663 24.3484 27.4207 24.3484C30.5753 24.3484 33.1326 21.7833 33.1326 18.6194C33.1326 15.4552 30.5753 12.8906 27.4204 12.8906H27.4207ZM40.552 5.72904C40.552 8.89297 37.9949 11.4586 34.8406 11.4586C31.6857 11.4586 29.1286 8.89297 29.1286 5.72904C29.1286 2.56511 31.6857 0 34.8406 0C37.9949 0 40.5517 2.56511 40.5517 5.72904H40.552Z" fill="url(#paint0_radial)"/>
</g>
<defs>
<radialGradient id="paint0_radial" cx="0" cy="0" r="1" gradientUnits="userSpaceOnUse" gradientTransform="translate(34.8403 13.307) scale(17.4024 16.1342)">
<stop stop-color="#FFB900"/>
<stop offset="0.6" stop-color="#F95D8F"/>
<stop offset="0.9991" stop-color="#F95353"/>
</radialGradient>
<clipPath id="clip0">
<rect width="69.4694" height="46" fill="white"/>
</clipPath>
</defs>
</svg>
