<svg width="46" height="46" viewBox="0 0 46 46" fill="none" xmlns="http://www.w3.org/2000/svg">
<path d="M24.2497 43.0346C16.5198 43.0346 9.731 40.0561 4.61541 34.4192C4.35277 34.1307 4.17451 33.7755 4.10015 33.3925C4.02578 33.0096 4.05816 32.6135 4.19375 32.2476C5.53733 28.6271 9.16558 20.2091 13.8173 20.1822H13.8422C16.1787 20.1822 17.9247 22.0318 19.3316 23.5191C19.7532 23.9638 20.3953 24.6442 20.8304 24.9777C21.9152 23.9063 24.0466 20.3471 25.7026 16.7782C25.9472 16.2764 26.3789 15.8906 26.9049 15.7037C27.4309 15.5168 28.0093 15.5437 28.5156 15.7787C29.022 16.0137 29.416 16.438 29.6128 16.9603C29.8097 17.4827 29.7938 18.0615 29.5685 18.5722C24.5449 29.4014 21.8654 29.4014 20.9857 29.4014C19.0268 29.4014 17.6085 27.8987 16.2342 26.4459C15.6209 25.7961 14.3406 24.443 13.8422 24.443C12.7555 24.6251 10.375 28.3779 8.673 32.5006C12.8762 36.6636 18.1087 38.772 24.2497 38.772C32.6735 38.772 38.9755 36.4796 41.6914 32.4566C40.7522 21.752 34.8585 7.22747 24.2497 7.22747C15.2682 7.22747 8.50241 13.4835 4.14008 25.8191C3.93887 26.3344 3.54525 26.7512 3.04238 26.9815C2.53951 27.2119 1.96679 27.2377 1.44522 27.0536C0.923657 26.8694 0.494105 26.4897 0.247328 25.9947C0.000550155 25.4997 -0.0441226 24.9282 0.122748 24.4008C5.15208 10.1734 13.2692 2.96289 24.2497 2.96289C38.5902 2.96289 45.1989 21.2881 45.9943 32.8399C46.0233 33.2616 45.9266 33.6825 45.7164 34.0493C42.3814 39.8434 34.7569 43.0327 24.2497 43.0327V43.0346Z" fill="black"/>
</svg>
