<svg width="110" height="25" viewBox="0 0 110 25" fill="none" xmlns="http://www.w3.org/2000/svg">
<path d="M17.2334 0.0610352H20.7403V3.73497H17.2334V0.0610352Z" fill="#525254"/>
<path d="M78.6318 0.0610352H82.1387V3.73497H78.6318V0.0610352Z" fill="#525254"/>
<path d="M9.4833 5.05322C7.27299 5.05322 5.99467 6.03955 5.37807 6.72096C5.3048 6.13378 4.91529 5.37203 3.3957 5.37203H0.0957031V8.8075H1.44814C1.67695 8.8075 1.75064 8.88015 1.75064 9.10728V24.7936H5.68443V18.9062C5.68443 18.7472 5.68121 18.5987 5.67713 18.4658C6.29158 19.0272 7.46506 19.7998 9.29811 19.7998C13.1429 19.7998 15.8311 16.7686 15.8311 12.4272C15.8311 8.0169 13.2787 5.05322 9.4833 5.05322ZM8.68408 16.3921C6.56637 16.3921 5.6043 14.3754 5.6043 12.5071C5.6043 9.56412 7.2225 8.51519 8.73672 8.51519C10.5936 8.51519 11.8425 10.1075 11.8425 12.4795C11.8425 15.1844 10.2548 16.3921 8.6843 16.3921" fill="#231F1F"/>
<path d="M21.0092 15.7732V7.46145C21.0092 6.05611 20.3281 5.37256 18.9336 5.37256H15.4189V8.80803H16.7729C17.0008 8.80803 17.0741 8.88068 17.0741 9.1076V17.3918C17.0741 18.817 17.7341 19.4803 19.1463 19.4803H22.6654V16.0751H21.311C21.0932 16.0751 21.0092 15.9888 21.0092 15.7734" fill="#231F1F"/>
<path d="M31.2846 5.05322C29.0737 5.05322 27.7971 6.03955 27.1777 6.72096C27.1046 6.13378 26.717 5.37203 25.1977 5.37203H21.8955V8.8075H23.2495C23.4774 8.8075 23.5513 8.88015 23.5513 9.10728V24.7936H27.4868V18.9062C27.4868 18.7472 27.4825 18.5987 27.4776 18.4658C28.0895 19.0272 29.2668 19.7998 31.0992 19.7998C34.9445 19.7998 37.6313 16.7686 37.6313 12.4272C37.6313 8.0169 35.0805 5.05322 31.2848 5.05322H31.2846ZM30.4822 16.3921C28.3703 16.3921 27.4047 14.3754 27.4047 12.5071C27.4047 9.56412 29.0225 8.51519 30.538 8.51519C32.3947 8.51519 33.6432 10.1075 33.6432 12.4795C33.6432 15.1844 32.0574 16.3921 30.4822 16.3921Z" fill="#231F1F"/>
<path d="M44.8814 5.05295C40.6438 5.05295 37.6807 8.08564 37.6807 12.4269C37.6807 16.6978 40.878 19.7995 45.2835 19.7995C48.7494 19.7995 50.8669 17.7591 50.9563 17.6728L51.1144 17.5177L49.4015 14.6893L49.1467 14.929C49.1303 14.9412 47.5755 16.3664 45.5218 16.3664C43.5506 16.3664 42.1077 15.1698 41.7676 13.2927H51.0949L51.1172 13.0363C51.1232 13.0012 51.2012 12.1688 51.2012 11.7619C51.2012 7.74953 48.6613 5.05273 44.8814 5.05273V5.05295ZM41.9137 10.3903C42.3406 9.00594 43.4075 8.22154 44.8814 8.22154C46.0652 8.22154 46.9778 9.11726 47.1379 10.3903H41.9137Z" fill="#231F1F"/>
<path d="M65.5074 15.7728V2.1495C65.5074 0.745223 64.8171 0.0610352 63.4045 0.0610352H59.8889V3.49629H61.2424C61.4701 3.49629 61.5453 3.56958 61.5453 3.79693V6.25954C60.9648 5.73817 59.8308 5.05313 57.8792 5.05313C54.0621 5.05313 51.3984 8.08603 51.3984 12.4271C51.3984 16.8375 53.9508 19.7999 57.7464 19.7999C59.917 19.7999 61.1674 18.7978 61.7784 18.1001C61.8579 18.7091 62.2543 19.4798 63.7264 19.4798H67.1342V16.0749H65.8089C65.5908 16.0749 65.5074 15.9882 65.5074 15.7728ZM58.4928 16.3924C56.6221 16.3924 55.4119 14.8354 55.4119 12.4273C55.4119 10.0865 56.6711 8.51531 58.5465 8.51531C60.6724 8.51531 61.6252 10.4651 61.6252 12.4016C61.6252 15.3452 60.0057 16.3922 58.4928 16.3922" fill="#231F1F"/>
<path d="M75.9074 5.18604C74.2703 5.18604 72.7629 6.12599 71.8696 7.62321V7.30078C71.8696 6.02236 71.1598 5.37257 69.7674 5.37257H66.3857V8.80826H67.7382C67.9659 8.80826 68.0413 8.88048 68.0413 9.10804V19.4809H71.9743V13.8345C71.9743 13.0909 72.0696 12.3749 72.2557 11.7136C72.8474 9.76638 74.4211 9.07321 75.6936 9.07321C76.1448 9.07321 76.4735 9.12086 76.4784 9.12236L76.8072 9.1715V5.28283L76.5678 5.24245C76.5558 5.24031 76.2228 5.18604 75.9074 5.18604Z" fill="#231F1F"/>
<path d="M82.406 15.7732V7.46145C82.406 6.05611 81.7288 5.37256 80.3332 5.37256H77.1533V8.80803H78.1697C78.3992 8.80803 78.472 8.88068 78.472 9.1076V17.3918C78.472 18.817 79.1322 19.4803 80.547 19.4803H84.0629V16.0751H82.7085C82.4905 16.0751 82.406 15.9888 82.406 15.7734" fill="#231F1F"/>
<path d="M97.1866 8.80775V5.37228H95.0876C93.8619 5.37228 93.204 5.79493 92.8156 6.83382L90.2514 13.9567C90.1597 14.2349 90.0787 14.5165 90.0087 14.8009C89.9339 14.5154 89.8458 14.2159 89.7485 13.9513L87.1843 6.83126C86.7907 5.78169 86.1557 5.37207 84.9126 5.37207H82.6816V8.80775H83.2606C83.5674 8.80775 83.6661 8.91117 83.7393 9.1022L87.7083 19.48H92.1311L96.1008 9.1022C96.1734 8.91117 96.2748 8.80775 96.5825 8.80775H97.1866Z" fill="#231F1F"/>
<path d="M109.827 13.0365C109.83 13.0012 109.91 12.1685 109.91 11.7619C109.91 7.74953 107.369 5.05273 103.588 5.05273C99.3506 5.05273 96.3896 8.08564 96.3896 12.4267C96.3896 16.698 99.5833 19.7995 103.99 19.7995C107.456 19.7995 109.575 17.7591 109.663 17.6728L109.823 17.5177L108.113 14.6893L107.853 14.929C107.84 14.9412 106.277 16.3664 104.231 16.3664C102.259 16.3664 100.815 15.1698 100.474 13.2927H109.804L109.827 13.0363V13.0365ZM100.621 10.3906C101.051 9.00594 102.115 8.22132 103.588 8.22132C104.775 8.22132 105.684 9.11726 105.846 10.3906H100.621H100.621Z" fill="#231F1F"/>
<path d="M75.908 5.18604C74.6365 5.18604 73.4523 5.75804 72.5635 6.70997C73.3144 6.70334 74.07 6.69714 74.8256 6.69714C75.4894 6.69714 76.1477 6.70334 76.8079 6.70719V5.28283L76.5684 5.24245C76.5564 5.24031 76.2233 5.18604 75.908 5.18604Z" fill="#3B3B3C"/>
<path d="M92.8161 6.8341L92.6543 7.28688C94.1754 7.39094 95.6842 7.50568 97.1871 7.6341V5.37256H95.0885C93.8626 5.37256 93.2043 5.79521 92.8161 6.8341Z" fill="#3B3B3C"/>
<path d="M9.4833 5.05322C7.27299 5.05322 5.99424 6.03955 5.37807 6.72074C5.30438 6.13378 4.91529 5.37203 3.3957 5.37203H0.0957031V8.8075H1.44814C1.67695 8.8075 1.75064 8.88015 1.75064 9.10707V17.8485C3.58898 17.2135 5.43843 16.6107 7.29812 16.0404C6.14227 15.3825 5.6043 13.9041 5.6043 12.5066C5.6043 9.56433 7.2225 8.51519 8.73672 8.51519C10.5936 8.51519 11.8425 10.1075 11.8425 12.4795C11.8425 13.4757 11.6251 14.2658 11.274 14.8697C12.7596 14.4509 14.2503 14.0504 15.7458 13.6682C15.7948 13.2675 15.8311 12.8549 15.8311 12.4272C15.8311 8.0169 13.2787 5.05322 9.4833 5.05322Z" fill="#3B3B3C"/>
<path d="M18.9336 5.37256H15.4189V8.80803H16.7729C17.0006 8.80803 17.0737 8.88068 17.0737 9.10782V13.3392C18.3822 13.0147 19.6942 12.7037 21.0092 12.4061V7.46145C21.0092 6.05653 20.3281 5.37256 18.9336 5.37256Z" fill="#3B3B3C"/>
<path d="M17.2334 0.0610352H20.7403V3.73497H17.2334V0.0610352Z" fill="#3B3B3C"/>
<path d="M31.2846 5.05295C29.0734 5.05295 27.7971 6.03927 27.1777 6.72047C27.104 6.1335 26.717 5.37175 25.1972 5.37175H21.8955V8.80722H23.249C23.477 8.80722 23.5513 8.87987 23.5513 9.1068V11.8472C24.8938 11.5642 26.2388 11.2928 27.5861 11.0331C28.0368 9.21727 29.3141 8.51491 30.5376 8.51491C31.6451 8.51491 32.5277 9.08927 33.0659 10.0491C34.4237 9.8241 35.7901 9.60722 37.1687 9.40188C36.2729 6.71577 34.127 5.05273 31.2846 5.05273" fill="#3B3B3C"/>
<path d="M44.8824 5.05295C41.7863 5.05295 39.3777 6.6741 38.3018 9.23949C39.9737 8.99996 41.663 8.77624 43.3671 8.56855C43.8031 8.34269 44.3105 8.22175 44.8824 8.22175C45.0992 8.22175 45.3005 8.26192 45.4956 8.31748C47.0416 8.14355 48.6018 7.98329 50.1742 7.8365C49.0934 6.09162 47.227 5.05273 44.8824 5.05273" fill="#3B3B3C"/>
<path d="M63.4047 0.0610352H59.889V3.49629H61.2425C61.4698 3.49629 61.5454 3.56958 61.5454 3.79693V6.25954C60.9649 5.73817 59.831 5.05313 57.8793 5.05313C55.7429 5.05313 53.9685 6.00334 52.8193 7.60334C57.042 7.25141 61.2727 7.00212 65.5076 6.85569V2.1495C65.5076 0.745223 64.8173 0.0610352 63.4047 0.0610352Z" fill="#3B3B3C"/>
<path d="M69.768 5.37256H66.3857V6.83175C68.1803 6.77491 69.9831 6.73431 71.8013 6.7138C71.6021 5.82683 70.925 5.37256 69.768 5.37256Z" fill="#3B3B3C"/>
<path d="M78.6318 0.0610352H82.1387V3.73497H78.6318V0.0610352Z" fill="#3B3B3C"/>
<path d="M80.333 5.37256H77.1533V6.70931C78.8901 6.72491 80.6187 6.75632 82.3381 6.80312C82.1426 5.84756 81.4869 5.37256 80.333 5.37256Z" fill="#3B3B3C"/>
<path d="M84.9126 5.37256H82.6816V6.81358C84.2088 6.85845 85.7266 6.91401 87.2359 6.98239L87.1843 6.83175C86.7907 5.78217 86.1557 5.37256 84.9126 5.37256Z" fill="#3B3B3C"/>
<path d="M103.588 5.05295C101.172 5.05295 99.1749 6.0412 97.8994 7.69333C99.7466 7.85466 101.583 8.03564 103.398 8.23478C103.678 8.26534 103.953 8.29354 104.228 8.3256C105.98 8.5226 107.713 8.73927 109.431 8.97239C108.531 6.55081 106.404 5.05273 103.588 5.05273" fill="#3B3B3C"/>
</svg>
