<svg width="48" height="42" viewBox="0 0 48 42" fill="none" xmlns="http://www.w3.org/2000/svg">
<path d="M23.984 0.932013C23.116 0.932013 22.244 1.10401 21.424 1.44601L3.558 8.83401C2.552 9.25001 2.578 10.65 3.582 11.066L21.546 18.182C23.1198 18.82 24.8802 18.82 26.454 18.182L44.418 11.066C45.424 10.674 45.424 9.25001 44.442 8.83401L26.528 1.44601C25.7231 1.10566 24.8579 0.930855 23.984 0.932013ZM46.8 13.112C46.6476 13.113 46.4968 13.1436 46.356 13.202L26.332 20.956C26.108 21.0478 25.9162 21.2039 25.7809 21.4047C25.6456 21.6055 25.5729 21.8419 25.572 22.084V39.876C25.5739 40.0708 25.6232 40.2622 25.7156 40.4337C25.808 40.6052 25.9407 40.7516 26.1024 40.8602C26.264 40.9689 26.4497 41.0366 26.6434 41.0575C26.8371 41.0784 27.0329 41.0518 27.214 40.98L47.24 33.2C47.4645 33.1166 47.6579 32.9661 47.7939 32.7689C47.9299 32.5718 48.0018 32.3375 48 32.098V14.306C47.9979 13.9891 47.8705 13.686 47.6457 13.4627C47.4209 13.2393 47.1169 13.114 46.8 13.114V13.112ZM1.352 13.19C1.17443 13.1837 0.99747 13.2142 0.832258 13.2796C0.667045 13.345 0.51715 13.4439 0.392 13.57C0.172 13.792 0 14.06 0 14.38V31.09C0 31.974 1.03 32.564 1.816 32.17L14.356 26.158L14.97 25.864L20.908 22.992C21.84 22.552 21.768 21.176 20.786 20.808L1.766 13.276C1.6347 13.2211 1.49428 13.1912 1.352 13.188V13.19Z" fill="#4353FF"/>
</svg>
