<svg width="48" height="48" viewBox="0 0 48 48" fill="none" xmlns="http://www.w3.org/2000/svg">
<path d="M8.15704 45.1695H15.066V38.2695H8.15704V45.1695ZM2.38054 32.4945V38.2695H8.15553V32.4945H2.38054ZM46.0875 16.584C43.9305 9.62849 38.3625 4.08749 31.4055 1.90349C15.459 -3.07501 0.748535 8.78399 0.748535 23.991H9.73054C9.73054 14.448 19.1985 7.06949 29.2395 10.707C31.0856 11.3776 32.7625 12.4444 34.1523 13.8324C35.542 15.2203 36.611 16.8958 37.284 18.741C40.95 28.773 33.5625 38.223 24.0285 38.241V38.2695H24V47.2515C39.2445 47.2515 51.075 32.5515 46.0875 16.5855V16.584ZM24.0285 38.241V29.307H15.066V38.2695H24V38.241H24.0285Z" fill="#4353FF"/>
</svg>
