<svg width="48" height="48" viewBox="0 0 48 48" fill="none" xmlns="http://www.w3.org/2000/svg">
<g clip-path="url(#clip0)">
<path d="M8.9221 8.41347C10.4071 9.62397 10.9696 9.53847 13.7731 9.35097L40.2031 7.76546C40.7656 7.76546 40.2976 7.20296 40.1086 7.10846L35.7181 3.93596C34.8826 3.27896 33.7576 2.53796 31.6081 2.71646L6.0226 4.59146C5.0851 4.67696 4.8976 5.14646 5.2726 5.52146L8.9221 8.41347ZM10.5076 14.5785V42.3825C10.5076 43.875 11.2501 44.4375 12.9301 44.343L41.9776 42.663C43.6576 42.5685 43.8526 41.5455 43.8526 40.3275V12.711C43.8526 11.4915 43.3831 10.8435 42.3526 10.938L12.0016 12.711C10.8766 12.8055 10.5091 13.359 10.5091 14.571L10.5076 14.5785ZM39.1801 16.062C39.3676 16.9065 39.1801 17.742 38.3356 17.844L36.9376 18.126V38.649C35.7181 39.306 34.6021 39.681 33.6721 39.681C32.1721 39.681 31.7971 39.2115 30.6796 37.8135L21.5236 23.439V37.3455L24.4216 38.0025C24.4216 38.0025 24.4216 39.6825 22.0861 39.6825L15.6406 40.0575C15.4531 39.6825 15.6406 38.745 16.2976 38.565L17.9776 38.0955V19.713L15.6421 19.5255C15.4546 18.681 15.9241 17.4705 17.2276 17.3775L24.1411 16.908L33.6721 31.47V18.5865L31.2421 18.3045C31.0546 17.2815 31.7971 16.5315 32.7346 16.4445L39.1801 16.062ZM3.8746 2.06996L30.4921 0.109465C33.7576 -0.172535 34.6021 0.0149649 36.6556 1.50746L45.1561 7.48346C46.5541 8.50646 47.0236 8.78846 47.0236 9.90596V42.6645C47.0236 44.7195 46.2736 45.93 43.6636 46.1175L12.7411 47.985C10.7881 48.0795 9.8506 47.7975 8.8186 46.4925L2.5606 38.367C1.4431 36.8745 0.975098 35.757 0.975098 34.4535V5.33696C0.975098 3.65696 1.7251 2.25897 3.8731 2.07147L3.8746 2.06996Z" fill="#4353FF"/>
</g>
<defs>
<clipPath id="clip0">
<rect width="48" height="48" fill="white"/>
</clipPath>
</defs>
</svg>
