<svg width="48" height="48" viewBox="0 0 48 48" fill="none" xmlns="http://www.w3.org/2000/svg">
<path d="M19.1906 6C17.2031 6 15.5953 7.6125 15.5953 9.6C15.5953 10.5516 15.975 11.4703 16.6453 12.1453C17.3203 12.8203 18.2344 13.2 19.1906 13.2H22.7859V9.6C22.7859 7.61719 21.1781 6.00469 19.1906 6ZM19.1906 15.6H9.59531C7.60781 15.6 6 17.2125 6 19.2C6 21.1875 7.6125 22.8 9.59531 22.8H19.1859C21.1734 22.8 22.7813 21.1875 22.7813 19.2C22.7859 17.2125 21.1734 15.6 19.1906 15.6ZM28.7813 22.8C30.7688 22.8 32.3813 21.1875 32.3766 19.2V9.6C32.3766 7.6125 30.7688 6 28.7813 6C26.7938 6 25.1859 7.6125 25.1859 9.6V19.2C25.1859 21.1922 26.7938 22.8 28.7813 22.8ZM41.9719 19.2C41.9719 17.2125 40.3594 15.6 38.3766 15.6C36.3938 15.6 34.7813 17.2125 34.7813 19.2V22.8H38.3766C40.3594 22.8 41.9719 21.1875 41.9719 19.2ZM38.3719 25.2H28.7813C26.7938 25.2 25.1859 26.8125 25.1859 28.8C25.1859 29.7516 25.5656 30.6703 26.2359 31.3453C26.9109 32.0203 27.825 32.4 28.7813 32.4H38.3719C40.3594 32.4 41.9672 30.7875 41.9672 28.8C41.9719 26.8125 40.3594 25.2047 38.3719 25.2ZM28.7813 34.8H25.1859V38.4C25.1859 40.3875 26.7984 42 28.7813 42C30.7688 42 32.3813 40.3875 32.3766 38.4C32.3813 36.4125 30.7688 34.8047 28.7813 34.8ZM19.1906 25.2C17.2031 25.2 15.5953 26.8125 15.5953 28.8V38.4C15.5953 40.3875 17.2078 42 19.1906 42C21.1781 42 22.7906 40.3875 22.7859 38.4V28.8C22.7859 27.8484 22.4063 26.9297 21.7359 26.2547C21.0609 25.5797 20.1422 25.2 19.1906 25.2ZM6 28.8C6 29.7516 6.37969 30.6703 7.05 31.3453C7.725 32.0203 8.63906 32.4 9.59531 32.4C11.5828 32.4 13.1953 30.7875 13.1906 28.8V25.2H9.59531C7.6125 25.2 6 26.8125 6 28.8Z" fill="#4353FF"/>
</svg>
