<svg width="40" height="35" viewBox="0 0 40 35" fill="none" xmlns="http://www.w3.org/2000/svg">
<path d="M1.97439 0.77514C1.8502 0.236999 1.31328 -0.0985776 0.77514 0.0256088C0.236999 0.149795 -0.0985776 0.686718 0.0256088 1.22486L1.97439 0.77514ZM39.148 28.2617C39.5686 27.9038 39.6195 27.2727 39.2617 26.852L33.4299 19.9971C33.072 19.5764 32.4409 19.5255 32.0202 19.8834C31.5996 20.2413 31.5487 20.8724 31.9065 21.293L37.0904 27.3863L30.9971 32.5701C30.5764 32.928 30.5255 33.5591 30.8834 33.9798C31.2413 34.4004 31.8724 34.4513 32.293 34.0935L39.148 28.2617ZM0.0256088 1.22486C0.544675 3.47415 2.22427 9.66681 7.76824 15.6191C13.3299 21.5903 22.696 27.2287 38.4196 28.4968L38.5804 26.5032C23.304 25.2713 14.4201 19.8264 9.23176 14.2559C4.02573 8.66652 2.45532 2.85919 1.97439 0.77514L0.0256088 1.22486Z" fill="#1D1D1D"/>
</svg>
