<svg width="20" height="21" viewBox="0 0 20 21" fill="none" xmlns="http://www.w3.org/2000/svg">
<g clip-path="url(#clip0)">
<path d="M4.99996 15.5C4.99996 15.9583 5.37496 16.3333 5.83329 16.3333H6.66663V19.25C6.66663 19.9417 7.22496 20.5 7.91663 20.5C8.60829 20.5 9.16663 19.9417 9.16663 19.25V16.3333H10.8333V19.25C10.8333 19.9417 11.3916 20.5 12.0833 20.5C12.775 20.5 13.3333 19.9417 13.3333 19.25V16.3333H14.1666C14.625 16.3333 15 15.9583 15 15.5V7.16667H4.99996V15.5ZM2.91663 7.16667C2.22496 7.16667 1.66663 7.725 1.66663 8.41667V14.25C1.66663 14.9417 2.22496 15.5 2.91663 15.5C3.60829 15.5 4.16663 14.9417 4.16663 14.25V8.41667C4.16663 7.725 3.60829 7.16667 2.91663 7.16667ZM17.0833 7.16667C16.3916 7.16667 15.8333 7.725 15.8333 8.41667V14.25C15.8333 14.9417 16.3916 15.5 17.0833 15.5C17.775 15.5 18.3333 14.9417 18.3333 14.25V8.41667C18.3333 7.725 17.775 7.16667 17.0833 7.16667ZM12.9416 2.3L14.025 1.21667C14.1916 1.05 14.1916 0.791667 14.025 0.625C13.8583 0.458333 13.6 0.458333 13.4333 0.625L12.2 1.85833C11.5416 1.525 10.7916 1.33333 9.99996 1.33333C9.19996 1.33333 8.44996 1.525 7.78329 1.85833L6.54163 0.625C6.37496 0.458333 6.11663 0.458333 5.94996 0.625C5.78329 0.791667 5.78329 1.05 5.94996 1.21667L7.04163 2.30833C5.80829 3.21667 4.99996 4.675 4.99996 6.33333H15C15 4.675 14.1916 3.20833 12.9416 2.3ZM8.33329 4.66667H7.49996V3.83333H8.33329V4.66667ZM12.5 4.66667H11.6666V3.83333H12.5V4.66667Z" fill="white"/>
</g>
<defs>
<clipPath id="clip0">
<rect width="20" height="20" fill="white" transform="translate(0 0.5)"/>
</clipPath>
</defs>
</svg>
