<svg width="20" height="21" viewBox="0 0 20 21" fill="none" xmlns="http://www.w3.org/2000/svg">
<g clip-path="url(#clip0)">
<path d="M17.7951 14.2391C16.6801 13.8174 15.9342 12.8049 15.8501 11.5974C15.7676 10.4208 16.3442 9.37576 17.3926 8.8016L18.2642 8.3241L17.6417 7.54909C16.5959 6.24659 15.0992 5.46826 13.6384 5.46826C12.6259 5.46826 11.9234 5.73326 11.3592 5.94659C10.9609 6.09743 10.6467 6.21576 10.3017 6.21576C9.9084 6.21576 9.52006 6.07743 9.07006 5.91743C8.48006 5.70743 7.81173 5.46909 6.95339 5.46909C5.29506 5.46909 3.62256 6.4591 2.58923 8.05076C1.04673 10.4249 1.47006 14.4958 3.59589 17.7308C4.43839 19.0124 5.61923 20.4849 7.29173 20.4999C7.30256 20.4999 7.31339 20.4999 7.32423 20.4999C8.69339 20.4999 8.9934 19.7699 10.3226 19.7616C11.7742 19.8299 11.9576 20.5058 13.3134 20.4966C14.9476 20.4816 16.1259 19.0208 17.0626 17.5933C17.6159 16.7541 17.8301 16.3149 18.2609 15.3616L18.6259 14.5533L17.7951 14.2391Z" fill="white"/>
<path d="M12.5834 3.37499C13.1251 2.67999 13.5359 1.69916 13.3867 0.696655C12.5017 0.757489 11.4684 1.31999 10.8642 2.05332C10.3159 2.71916 9.86341 3.70582 10.0392 4.66582C11.0042 4.69582 12.0034 4.11916 12.5834 3.37499Z" fill="white"/>
</g>
<defs>
<clipPath id="clip0">
<rect width="20" height="20" fill="white" transform="translate(0 0.5)"/>
</clipPath>
</defs>
</svg>
