<svg width="240" height="50" viewBox="0 0 240 50" fill="none" xmlns="http://www.w3.org/2000/svg">
<path d="M74.2845 36.1342C72.6874 36.1342 71.2874 35.8542 70.0845 35.2942C68.8815 34.7342 67.9378 33.9356 67.2534 32.8986C66.5896 31.8616 66.2474 30.6275 66.2267 29.1964H69.7111C69.7318 30.3578 70.1363 31.3431 70.9245 32.152C71.7126 32.9608 72.8222 33.3653 74.2534 33.3653C75.5185 33.3653 76.5038 33.0645 77.2089 32.4631C77.9349 31.8408 78.2978 31.0527 78.2978 30.0986C78.2978 29.3311 78.1215 28.7089 77.7689 28.232C77.4371 27.7549 76.9704 27.3608 76.3689 27.0497C75.7882 26.7386 75.1141 26.4586 74.3467 26.2097C73.5793 25.9608 72.7704 25.6912 71.92 25.4008C70.24 24.8408 68.9749 24.1149 68.1245 23.2231C67.2949 22.3312 66.88 21.1593 66.88 19.7075C66.8593 18.4838 67.1393 17.4156 67.72 16.5031C68.3215 15.5904 69.1511 14.8853 70.2089 14.3875C71.2874 13.8689 72.5422 13.6097 73.9734 13.6097C75.3838 13.6097 76.6178 13.8689 77.6756 14.3875C78.7541 14.906 79.5941 15.632 80.1956 16.5653C80.7971 17.4778 81.1082 18.546 81.1289 19.7697H77.6445C77.6445 19.2097 77.4993 18.6808 77.2089 18.1831C76.9185 17.6645 76.4934 17.2393 75.9334 16.9075C75.3734 16.5756 74.6889 16.4097 73.88 16.4097C72.843 16.3889 71.9822 16.6482 71.2978 17.1875C70.6341 17.7267 70.3022 18.4734 70.3022 19.4275C70.3022 20.2778 70.5511 20.9312 71.0489 21.3875C71.5467 21.8438 72.2311 22.2275 73.1022 22.5386C73.9734 22.8289 74.9689 23.1712 76.0889 23.5653C77.1674 23.9178 78.1318 24.3431 78.9822 24.8408C79.8326 25.3386 80.5067 25.992 81.0045 26.8008C81.523 27.6097 81.7822 28.6364 81.7822 29.8808C81.7822 30.98 81.5022 32.0067 80.9422 32.9608C80.3822 33.8942 79.5422 34.6616 78.4222 35.2631C77.3022 35.8438 75.923 36.1342 74.2845 36.1342ZM90.4898 36.1342C89.1831 36.1342 88.1047 35.9164 87.2544 35.4808C86.404 35.0453 85.7714 34.4749 85.3566 33.7697C84.9418 33.0438 84.7344 32.2556 84.7344 31.4053C84.7344 29.912 85.3151 28.7297 86.4766 27.8586C87.6381 26.9875 89.2978 26.552 91.4542 26.552H95.4987V26.272C95.4987 25.0689 95.1671 24.1667 94.5031 23.5653C93.8605 22.9638 93.0205 22.6631 91.9831 22.6631C91.0711 22.6631 90.272 22.8912 89.5876 23.3475C88.9245 23.7831 88.5196 24.4364 88.3744 25.3075H85.0766C85.1803 24.1875 85.5536 23.2334 86.1966 22.4453C86.8603 21.6364 87.69 21.0245 88.6855 20.6097C89.7022 20.1742 90.8116 19.9564 92.0142 19.9564C94.1716 19.9564 95.8409 20.5267 97.0231 21.6675C98.2054 22.7875 98.7965 24.3223 98.7965 26.272V35.7608H95.9342L95.6542 33.1164C95.2187 33.9667 94.5867 34.6823 93.7565 35.2631C92.9271 35.8438 91.8382 36.1342 90.4898 36.1342ZM91.1431 33.4586C92.0356 33.4586 92.7822 33.2512 93.3831 32.8364C94.0054 32.4008 94.4827 31.8304 94.8142 31.1253C95.1671 30.42 95.3849 29.6423 95.4676 28.792H91.7965C90.4898 28.792 89.5565 29.02 88.9965 29.4764C88.4574 29.9327 88.1878 30.5031 88.1878 31.1875C88.1878 31.8927 88.447 32.4527 88.9654 32.8675C89.5049 33.2616 90.2311 33.4586 91.1431 33.4586ZM107.868 36.1342C106.562 36.1342 105.484 35.9164 104.633 35.4808C103.782 35.0453 103.15 34.4749 102.735 33.7697C102.32 33.0438 102.113 32.2556 102.113 31.4053C102.113 29.912 102.693 28.7297 103.855 27.8586C105.017 26.9875 106.676 26.552 108.833 26.552H112.877V26.272C112.877 25.0689 112.546 24.1667 111.882 23.5653C111.239 22.9638 110.399 22.6631 109.362 22.6631C108.449 22.6631 107.651 22.8912 106.966 23.3475C106.302 23.7831 105.898 24.4364 105.753 25.3075H102.455C102.559 24.1875 102.932 23.2334 103.575 22.4453C104.239 21.6364 105.068 21.0245 106.064 20.6097C107.08 20.1742 108.19 19.9564 109.393 19.9564C111.55 19.9564 113.22 20.5267 114.402 21.6675C115.584 22.7875 116.175 24.3223 116.175 26.272V35.7608H113.313L113.033 33.1164C112.597 33.9667 111.964 34.6823 111.135 35.2631C110.306 35.8438 109.217 36.1342 107.868 36.1342ZM108.522 33.4586C109.413 33.4586 110.16 33.2512 110.762 32.8364C111.384 32.4008 111.861 31.8304 112.193 31.1253C112.546 30.42 112.764 29.6423 112.846 28.792H109.175C107.868 28.792 106.935 29.02 106.375 29.4764C105.836 29.9327 105.566 30.5031 105.566 31.1875C105.566 31.8927 105.826 32.4527 106.344 32.8675C106.884 33.2616 107.609 33.4586 108.522 33.4586ZM127.332 36.1342C125.734 36.1342 124.334 35.8542 123.132 35.2942C121.928 34.7342 120.985 33.9356 120.3 32.8986C119.636 31.8616 119.294 30.6275 119.274 29.1964H122.758C122.779 30.3578 123.183 31.3431 123.972 32.152C124.759 32.9608 125.869 33.3653 127.3 33.3653C128.565 33.3653 129.55 33.0645 130.256 32.4631C130.981 31.8408 131.345 31.0527 131.345 30.0986C131.345 29.3311 131.168 28.7089 130.816 28.232C130.484 27.7549 130.017 27.3608 129.416 27.0497C128.835 26.7386 128.161 26.4586 127.394 26.2097C126.626 25.9608 125.817 25.6912 124.967 25.4008C123.287 24.8408 122.021 24.1149 121.172 23.2231C120.341 22.3312 119.927 21.1593 119.927 19.7075C119.906 18.4838 120.186 17.4156 120.767 16.5031C121.368 15.5904 122.198 14.8853 123.256 14.3875C124.334 13.8689 125.589 13.6097 127.02 13.6097C128.43 13.6097 129.665 13.8689 130.723 14.3875C131.801 14.906 132.641 15.632 133.243 16.5653C133.844 17.4778 134.155 18.546 134.176 19.7697H130.692C130.692 19.2097 130.546 18.6808 130.256 18.1831C129.965 17.6645 129.54 17.2393 128.98 16.9075C128.42 16.5756 127.736 16.4097 126.927 16.4097C125.89 16.3889 125.029 16.6482 124.345 17.1875C123.681 17.7267 123.349 18.4734 123.349 19.4275C123.349 20.2778 123.598 20.9312 124.096 21.3875C124.594 21.8438 125.278 22.2275 126.149 22.5386C127.02 22.8289 128.016 23.1712 129.136 23.5653C130.214 23.9178 131.179 24.3431 132.029 24.8408C132.879 25.3386 133.554 25.992 134.052 26.8008C134.57 27.6097 134.829 28.6364 134.829 29.8808C134.829 30.98 134.549 32.0067 133.989 32.9608C133.429 33.8942 132.589 34.6616 131.469 35.2631C130.349 35.8438 128.97 36.1342 127.332 36.1342ZM146.273 35.7608V13.9831H154.486C156.748 13.9831 158.459 14.512 159.62 15.5697C160.781 16.6275 161.362 17.9549 161.362 19.552C161.362 20.9416 160.988 22.0512 160.242 22.8808C159.495 23.6897 158.593 24.2393 157.535 24.5297C158.365 24.6956 159.101 25.0275 159.744 25.5253C160.408 26.0231 160.926 26.6453 161.3 27.3919C161.673 28.1386 161.86 28.9475 161.86 29.8186C161.86 30.9386 161.58 31.9549 161.02 32.8675C160.481 33.7593 159.682 34.4645 158.624 34.9831C157.566 35.5015 156.27 35.7608 154.735 35.7608H146.273ZM149.571 23.3164H154.082C155.348 23.3164 156.312 23.026 156.975 22.4453C157.639 21.8438 157.971 21.0245 157.971 19.9875C157.971 18.9711 157.639 18.1623 156.975 17.5608C156.332 16.9593 155.348 16.6586 154.02 16.6586H149.571V23.3164ZM149.571 33.0542H154.3C155.628 33.0542 156.654 32.7431 157.38 32.1208C158.126 31.4986 158.5 30.6275 158.5 29.5075C158.5 28.3875 158.116 27.506 157.348 26.8631C156.581 26.1993 155.544 25.8675 154.237 25.8675H149.571V33.0542ZM165.35 35.7608V13.3608H168.648V35.7608H165.35ZM180.042 36.1342C178.569 36.1342 177.242 35.8023 176.06 35.1386C174.898 34.4542 173.975 33.5104 173.291 32.3075C172.606 31.0838 172.264 29.6631 172.264 28.0453C172.264 26.4275 172.606 25.0171 173.291 23.8142C173.996 22.5904 174.94 21.6467 176.122 20.9831C177.304 20.2986 178.621 19.9564 180.073 19.9564C181.546 19.9564 182.862 20.2986 184.024 20.9831C185.206 21.6467 186.14 22.5904 186.824 23.8142C187.529 25.0171 187.882 26.4275 187.882 28.0453C187.882 29.6631 187.529 31.0838 186.824 32.3075C186.14 33.5104 185.206 34.4542 184.024 35.1386C182.842 35.8023 181.515 36.1342 180.042 36.1342ZM180.042 33.3031C180.83 33.3031 181.556 33.106 182.22 32.712C182.904 32.3178 183.453 31.7371 183.868 30.9697C184.284 30.1815 184.491 29.2067 184.491 28.0453C184.491 26.8838 184.284 25.9193 183.868 25.152C183.475 24.3638 182.935 23.7727 182.251 23.3786C181.587 22.9845 180.861 22.7875 180.073 22.7875C179.284 22.7875 178.548 22.9845 177.864 23.3786C177.2 23.7727 176.661 24.3638 176.246 25.152C175.831 25.9193 175.624 26.8838 175.624 28.0453C175.624 29.2067 175.831 30.1815 176.246 30.9697C176.661 31.7371 177.2 32.3178 177.864 32.712C178.528 33.106 179.253 33.3031 180.042 33.3031ZM198.759 36.1342C197.245 36.1342 195.887 35.792 194.684 35.1075C193.501 34.4231 192.568 33.4793 191.884 32.2764C191.22 31.0527 190.888 29.6423 190.888 28.0453C190.888 26.4482 191.22 25.0482 191.884 23.8453C192.568 22.6216 193.501 21.6675 194.684 20.9831C195.887 20.2986 197.245 19.9564 198.759 19.9564C200.668 19.9564 202.265 20.4542 203.55 21.4497C204.857 22.4453 205.697 23.7934 206.07 25.4942H202.617C202.41 24.6438 201.954 23.98 201.248 23.5031C200.543 23.026 199.714 22.7875 198.759 22.7875C197.95 22.7875 197.204 22.9949 196.519 23.4097C195.835 23.8038 195.285 24.3949 194.87 25.1831C194.456 25.9504 194.248 26.9045 194.248 28.0453C194.248 29.186 194.456 30.1504 194.87 30.9386C195.285 31.706 195.835 32.2971 196.519 32.712C197.204 33.1267 197.95 33.3342 198.759 33.3342C199.714 33.3342 200.543 33.0956 201.248 32.6186C201.954 32.1415 202.41 31.4675 202.617 30.5964H206.07C205.718 32.2556 204.888 33.5934 203.581 34.6097C202.275 35.626 200.668 36.1342 198.759 36.1342ZM209.647 35.7608V13.3608H212.945V26.7075L218.856 20.3297H222.807L216.243 27.3297L223.772 35.7608H219.603L212.945 27.8586V35.7608H209.647ZM231.667 36.1342C229.716 36.1342 228.109 35.6571 226.844 34.7031C225.579 33.7489 224.853 32.4838 224.667 30.9075H227.996C228.161 31.6127 228.556 32.2245 229.178 32.7431C229.8 33.2408 230.619 33.4897 231.636 33.4897C232.631 33.4897 233.356 33.2823 233.813 32.8675C234.269 32.4527 234.498 31.9756 234.498 31.4364C234.498 30.6482 234.176 30.1193 233.533 29.8497C232.911 29.5593 232.04 29.3 230.92 29.0719C230.049 28.8853 229.178 28.6364 228.307 28.3253C227.456 28.0142 226.74 27.5786 226.16 27.0186C225.6 26.4378 225.32 25.66 225.32 24.6853C225.32 23.3371 225.838 22.2171 226.876 21.3253C227.912 20.4127 229.364 19.9564 231.231 19.9564C232.952 19.9564 234.342 20.3712 235.4 21.2008C236.478 22.0304 237.111 23.2023 237.298 24.7164H234.124C234.02 24.0527 233.709 23.5342 233.191 23.1608C232.693 22.7875 232.019 22.6008 231.169 22.6008C230.339 22.6008 229.696 22.7771 229.24 23.1297C228.783 23.4615 228.556 23.8971 228.556 24.4364C228.556 24.9756 228.867 25.4008 229.489 25.712C230.132 26.0231 230.972 26.3031 232.009 26.552C233.045 26.78 234 27.0497 234.871 27.3608C235.763 27.6511 236.478 28.0867 237.018 28.6675C237.556 29.2482 237.827 30.0986 237.827 31.2186C237.847 32.6289 237.298 33.8008 236.178 34.7342C235.078 35.6675 233.574 36.1342 231.667 36.1342Z" fill="black"/>
<g clip-path="url(#clip0)">
<path d="M18.2802 1.97834C20.9173 -0.658795 25.193 -0.658795 27.8301 1.97834C30.4409 4.5891 30.467 8.80576 27.9084 11.4486L27.8301 11.5282L16.4227 22.9356C15.8349 23.5235 15.8349 24.4766 16.4227 25.0645C16.9981 25.6398 17.9233 25.6521 18.5136 25.1012L18.5516 25.0645L24.2398 19.3763C26.7934 16.8226 30.9337 16.8226 33.4873 19.3763C36.0154 21.9044 36.0407 25.9875 33.5631 28.5467L33.4873 28.6238L21.9907 40.1204C21.4029 40.7082 21.4029 41.6613 21.9907 42.2492C22.5661 42.8246 23.4913 42.8368 24.0816 42.2859L24.1196 42.2492L39.5994 26.7694C41.1232 25.2456 41.15 22.7886 39.6724 21.2321L39.6215 21.1793L31.8438 13.2778C30.8187 12.2364 30.832 10.5613 31.8733 9.53633C32.8986 8.5271 34.5383 8.5244 35.567 9.51856L35.6147 9.56589L43.3925 17.4675C46.9243 21.0555 46.937 26.7987 43.4477 30.4024L43.3409 30.5109L27.8611 45.9907C25.2069 48.645 20.9035 48.645 18.2492 45.9907C15.6215 43.363 15.5952 39.119 18.1704 36.4589L18.2492 36.3788L29.7458 24.8823C30.233 24.395 30.233 23.6051 29.7458 23.1178C29.2701 22.6422 28.506 22.6309 28.0166 23.0838L27.9813 23.1178L22.2931 28.806C19.6389 31.4603 15.3355 31.4603 12.6812 28.806C10.0535 26.1783 10.0272 21.9342 12.6024 19.2742L12.6812 19.1941L24.0886 7.78671C24.6593 7.21597 24.6593 6.29062 24.0886 5.71988C23.5302 5.16155 22.6326 5.14941 22.0595 5.68347L22.0218 5.71988L6.54774 21.1939C4.99794 22.7437 4.99794 25.2564 6.54774 26.8062L14.145 34.4035C15.1782 35.4367 15.1782 37.1118 14.145 38.145C13.1277 39.1623 11.4881 39.178 10.4516 38.192L10.4035 38.145L2.8062 30.5477C-0.773831 26.9677 -0.809632 21.1856 2.6988 17.5615L2.8062 17.4523L18.2802 1.97834Z" fill="#FF5930"/>
</g>
<defs>
<clipPath id="clip0">
<rect width="46.1102" height="48" fill="white"/>
</clipPath>
</defs>
</svg>
