<svg width="240" height="50" viewBox="0 0 240 50" fill="none" xmlns="http://www.w3.org/2000/svg">
<path d="M74.2843 36.1342C72.6873 36.1342 71.2873 35.8542 70.0843 35.2942C68.8814 34.7342 67.9377 33.9356 67.2532 32.8986C66.5895 31.8616 66.2473 30.6275 66.2266 29.1964H69.711C69.7317 30.3578 70.1362 31.3431 70.9243 32.152C71.7125 32.9608 72.8221 33.3653 74.2532 33.3653C75.5184 33.3653 76.5036 33.0645 77.2088 32.4631C77.9347 31.8408 78.2977 31.0527 78.2977 30.0986C78.2977 29.3311 78.1214 28.7089 77.7688 28.232C77.437 27.7549 76.9703 27.3608 76.3688 27.0497C75.7881 26.7386 75.1139 26.4586 74.3466 26.2097C73.5792 25.9608 72.7703 25.6912 71.9199 25.4008C70.2399 24.8408 68.9747 24.1149 68.1243 23.2231C67.2947 22.3312 66.8799 21.1593 66.8799 19.7075C66.8592 18.4838 67.1392 17.4156 67.7199 16.5031C68.3214 15.5904 69.151 14.8853 70.2088 14.3875C71.2873 13.8689 72.5421 13.6097 73.9732 13.6097C75.3836 13.6097 76.6177 13.8689 77.6755 14.3875C78.7539 14.906 79.5939 15.632 80.1955 16.5653C80.797 17.4778 81.1081 18.546 81.1288 19.7697H77.6443C77.6443 19.2097 77.4992 18.6808 77.2088 18.1831C76.9184 17.6645 76.4932 17.2393 75.9332 16.9075C75.3732 16.5756 74.6888 16.4097 73.8799 16.4097C72.8428 16.3889 71.9821 16.6482 71.2977 17.1875C70.6339 17.7267 70.3021 18.4734 70.3021 19.4275C70.3021 20.2778 70.551 20.9312 71.0488 21.3875C71.5466 21.8438 72.231 22.2275 73.1021 22.5386C73.9732 22.8289 74.9688 23.1712 76.0888 23.5653C77.1673 23.9178 78.1317 24.3431 78.9821 24.8408C79.8325 25.3386 80.5066 25.992 81.0043 26.8008C81.5228 27.6097 81.7821 28.6364 81.7821 29.8808C81.7821 30.98 81.5021 32.0067 80.9421 32.9608C80.3821 33.8942 79.5421 34.6616 78.4221 35.2631C77.3021 35.8438 75.9228 36.1342 74.2843 36.1342ZM90.4897 36.1342C89.183 36.1342 88.1046 35.9164 87.2543 35.4808C86.4039 35.0453 85.7713 34.4749 85.3565 33.7697C84.9417 33.0438 84.7343 32.2556 84.7343 31.4053C84.7343 29.912 85.315 28.7297 86.4765 27.8586C87.6379 26.9875 89.2977 26.552 91.4541 26.552H95.4986V26.272C95.4986 25.0689 95.167 24.1667 94.503 23.5653C93.8603 22.9638 93.0203 22.6631 91.983 22.6631C91.071 22.6631 90.2719 22.8912 89.5875 23.3475C88.9243 23.7831 88.5195 24.4364 88.3743 25.3075H85.0765C85.1802 24.1875 85.5535 23.2334 86.1965 22.4453C86.8602 21.6364 87.6899 21.0245 88.6854 20.6097C89.7021 20.1742 90.8115 19.9564 92.0141 19.9564C94.1715 19.9564 95.8408 20.5267 97.023 21.6675C98.2052 22.7875 98.7963 24.3223 98.7963 26.272V35.7608H95.9341L95.6541 33.1164C95.2186 33.9667 94.5866 34.6823 93.7563 35.2631C92.927 35.8438 91.8381 36.1342 90.4897 36.1342ZM91.143 33.4586C92.0355 33.4586 92.7821 33.2512 93.383 32.8364C94.0052 32.4008 94.4826 31.8304 94.8141 31.1253C95.167 30.42 95.3848 29.6423 95.4675 28.792H91.7963C90.4897 28.792 89.5563 29.02 88.9963 29.4764C88.4572 29.9327 88.1876 30.5031 88.1876 31.1875C88.1876 31.8927 88.4468 32.4527 88.9652 32.8675C89.5048 33.2616 90.231 33.4586 91.143 33.4586ZM107.868 36.1342C106.562 36.1342 105.483 35.9164 104.633 35.4808C103.782 35.0453 103.15 34.4749 102.735 33.7697C102.32 33.0438 102.113 32.2556 102.113 31.4053C102.113 29.912 102.693 28.7297 103.855 27.8586C105.017 26.9875 106.675 26.552 108.833 26.552H112.877V26.272C112.877 25.0689 112.546 24.1667 111.882 23.5653C111.239 22.9638 110.399 22.6631 109.362 22.6631C108.449 22.6631 107.651 22.8912 106.966 23.3475C106.302 23.7831 105.898 24.4364 105.753 25.3075H102.455C102.559 24.1875 102.932 23.2334 103.575 22.4453C104.239 21.6364 105.068 21.0245 106.064 20.6097C107.08 20.1742 108.19 19.9564 109.393 19.9564C111.55 19.9564 113.219 20.5267 114.402 21.6675C115.584 22.7875 116.175 24.3223 116.175 26.272V35.7608H113.313L113.033 33.1164C112.597 33.9667 111.964 34.6823 111.135 35.2631C110.306 35.8438 109.217 36.1342 107.868 36.1342ZM108.522 33.4586C109.413 33.4586 110.16 33.2512 110.762 32.8364C111.384 32.4008 111.861 31.8304 112.193 31.1253C112.546 30.42 112.763 29.6423 112.846 28.792H109.175C107.868 28.792 106.935 29.02 106.375 29.4764C105.835 29.9327 105.566 30.5031 105.566 31.1875C105.566 31.8927 105.826 32.4527 106.344 32.8675C106.883 33.2616 107.609 33.4586 108.522 33.4586ZM127.331 36.1342C125.734 36.1342 124.334 35.8542 123.131 35.2942C121.928 34.7342 120.985 33.9356 120.3 32.8986C119.636 31.8616 119.294 30.6275 119.274 29.1964H122.758C122.779 30.3578 123.183 31.3431 123.971 32.152C124.759 32.9608 125.869 33.3653 127.3 33.3653C128.565 33.3653 129.55 33.0645 130.256 32.4631C130.981 31.8408 131.345 31.0527 131.345 30.0986C131.345 29.3311 131.168 28.7089 130.816 28.232C130.483 27.7549 130.017 27.3608 129.416 27.0497C128.835 26.7386 128.161 26.4586 127.394 26.2097C126.626 25.9608 125.817 25.6912 124.967 25.4008C123.287 24.8408 122.021 24.1149 121.171 23.2231C120.341 22.3312 119.927 21.1593 119.927 19.7075C119.906 18.4838 120.186 17.4156 120.767 16.5031C121.368 15.5904 122.198 14.8853 123.256 14.3875C124.334 13.8689 125.589 13.6097 127.02 13.6097C128.43 13.6097 129.665 13.8689 130.723 14.3875C131.801 14.906 132.641 15.632 133.243 16.5653C133.843 17.4778 134.155 18.546 134.176 19.7697H130.691C130.691 19.2097 130.546 18.6808 130.256 18.1831C129.965 17.6645 129.54 17.2393 128.98 16.9075C128.42 16.5756 127.736 16.4097 126.927 16.4097C125.89 16.3889 125.029 16.6482 124.345 17.1875C123.681 17.7267 123.349 18.4734 123.349 19.4275C123.349 20.2778 123.598 20.9312 124.096 21.3875C124.594 21.8438 125.278 22.2275 126.149 22.5386C127.02 22.8289 128.016 23.1712 129.136 23.5653C130.214 23.9178 131.179 24.3431 132.029 24.8408C132.879 25.3386 133.554 25.992 134.051 26.8008C134.57 27.6097 134.829 28.6364 134.829 29.8808C134.829 30.98 134.549 32.0067 133.989 32.9608C133.429 33.8942 132.589 34.6616 131.469 35.2631C130.349 35.8438 128.97 36.1342 127.331 36.1342ZM146.273 35.7608V13.9831H154.486C156.747 13.9831 158.459 14.512 159.619 15.5697C160.781 16.6275 161.362 17.9549 161.362 19.552C161.362 20.9416 160.988 22.0512 160.242 22.8808C159.495 23.6897 158.593 24.2393 157.535 24.5297C158.365 24.6956 159.101 25.0275 159.744 25.5253C160.408 26.0231 160.926 26.6453 161.299 27.3919C161.673 28.1386 161.859 28.9475 161.859 29.8186C161.859 30.9386 161.579 31.9549 161.019 32.8675C160.481 33.7593 159.682 34.4645 158.624 34.9831C157.566 35.5015 156.27 35.7608 154.735 35.7608H146.273ZM149.571 23.3164H154.082C155.347 23.3164 156.312 23.026 156.975 22.4453C157.639 21.8438 157.971 21.0245 157.971 19.9875C157.971 18.9711 157.639 18.1623 156.975 17.5608C156.332 16.9593 155.347 16.6586 154.019 16.6586H149.571V23.3164ZM149.571 33.0542H154.299C155.627 33.0542 156.654 32.7431 157.379 32.1208C158.126 31.4986 158.499 30.6275 158.499 29.5075C158.499 28.3875 158.116 27.506 157.348 26.8631C156.581 26.1993 155.544 25.8675 154.237 25.8675H149.571V33.0542ZM165.35 35.7608V13.3608H168.648V35.7608H165.35ZM180.042 36.1342C178.569 36.1342 177.242 35.8023 176.059 35.1386C174.898 34.4542 173.975 33.5104 173.291 32.3075C172.606 31.0838 172.264 29.6631 172.264 28.0453C172.264 26.4275 172.606 25.0171 173.291 23.8142C173.995 22.5904 174.939 21.6467 176.122 20.9831C177.304 20.2986 178.621 19.9564 180.073 19.9564C181.546 19.9564 182.862 20.2986 184.024 20.9831C185.206 21.6467 186.139 22.5904 186.824 23.8142C187.529 25.0171 187.882 26.4275 187.882 28.0453C187.882 29.6631 187.529 31.0838 186.824 32.3075C186.139 33.5104 185.206 34.4542 184.024 35.1386C182.842 35.8023 181.515 36.1342 180.042 36.1342ZM180.042 33.3031C180.83 33.3031 181.555 33.106 182.219 32.712C182.904 32.3178 183.453 31.7371 183.868 30.9697C184.283 30.1815 184.491 29.2067 184.491 28.0453C184.491 26.8838 184.283 25.9193 183.868 25.152C183.475 24.3638 182.935 23.7727 182.251 23.3786C181.587 22.9845 180.861 22.7875 180.073 22.7875C179.284 22.7875 178.548 22.9845 177.864 23.3786C177.2 23.7727 176.661 24.3638 176.246 25.152C175.831 25.9193 175.624 26.8838 175.624 28.0453C175.624 29.2067 175.831 30.1815 176.246 30.9697C176.661 31.7371 177.2 32.3178 177.864 32.712C178.528 33.106 179.253 33.3031 180.042 33.3031ZM198.759 36.1342C197.245 36.1342 195.887 35.792 194.683 35.1075C193.501 34.4231 192.568 33.4793 191.883 32.2764C191.22 31.0527 190.888 29.6423 190.888 28.0453C190.888 26.4482 191.22 25.0482 191.883 23.8453C192.568 22.6216 193.501 21.6675 194.683 20.9831C195.887 20.2986 197.245 19.9564 198.759 19.9564C200.667 19.9564 202.265 20.4542 203.55 21.4497C204.857 22.4453 205.697 23.7934 206.07 25.4942H202.617C202.41 24.6438 201.954 23.98 201.248 23.5031C200.543 23.026 199.714 22.7875 198.759 22.7875C197.95 22.7875 197.203 22.9949 196.519 23.4097C195.835 23.8038 195.285 24.3949 194.87 25.1831C194.456 25.9504 194.248 26.9045 194.248 28.0453C194.248 29.186 194.456 30.1504 194.87 30.9386C195.285 31.706 195.835 32.2971 196.519 32.712C197.203 33.1267 197.95 33.3342 198.759 33.3342C199.714 33.3342 200.543 33.0956 201.248 32.6186C201.954 32.1415 202.41 31.4675 202.617 30.5964H206.07C205.718 32.2556 204.888 33.5934 203.581 34.6097C202.275 35.626 200.667 36.1342 198.759 36.1342ZM209.647 35.7608V13.3608H212.945V26.7075L218.856 20.3297H222.807L216.243 27.3297L223.771 35.7608H219.603L212.945 27.8586V35.7608H209.647ZM231.667 36.1342C229.716 36.1342 228.109 35.6571 226.844 34.7031C225.579 33.7489 224.853 32.4838 224.667 30.9075H227.995C228.161 31.6127 228.555 32.2245 229.178 32.7431C229.8 33.2408 230.619 33.4897 231.635 33.4897C232.631 33.4897 233.356 33.2823 233.813 32.8675C234.269 32.4527 234.498 31.9756 234.498 31.4364C234.498 30.6482 234.176 30.1193 233.533 29.8497C232.911 29.5593 232.04 29.3 230.92 29.0719C230.049 28.8853 229.178 28.6364 228.307 28.3253C227.456 28.0142 226.74 27.5786 226.16 27.0186C225.6 26.4378 225.32 25.66 225.32 24.6853C225.32 23.3371 225.838 22.2171 226.875 21.3253C227.912 20.4127 229.364 19.9564 231.231 19.9564C232.952 19.9564 234.342 20.3712 235.4 21.2008C236.478 22.0304 237.111 23.2023 237.298 24.7164H234.124C234.02 24.0527 233.709 23.5342 233.191 23.1608C232.693 22.7875 232.019 22.6008 231.169 22.6008C230.339 22.6008 229.696 22.7771 229.24 23.1297C228.783 23.4615 228.555 23.8971 228.555 24.4364C228.555 24.9756 228.867 25.4008 229.489 25.712C230.131 26.0231 230.971 26.3031 232.009 26.552C233.045 26.78 234 27.0497 234.871 27.3608C235.763 27.6511 236.478 28.0867 237.018 28.6675C237.556 29.2482 237.827 30.0986 237.827 31.2186C237.847 32.6289 237.298 33.8008 236.178 34.7342C235.078 35.6675 233.574 36.1342 231.667 36.1342Z" fill="white"/>
<path d="M22.6148 28.5753L15.6963 35.4244C14.3007 36.8059 14.3007 39.0457 15.6963 40.4272L22.6148 47.2762C24.0104 48.6578 26.2729 48.6577 27.6685 47.2762L34.587 40.4272C35.9826 39.0457 35.9826 36.8059 34.587 35.4244L27.6685 28.5753C26.2729 27.1938 24.0103 27.1938 22.6148 28.5753Z" fill="white"/>
<path d="M35.7842 15.5382L28.8657 22.3872C27.4702 23.7687 27.4702 26.0086 28.8657 27.3901L35.7843 34.2391C37.1798 35.6206 39.4424 35.6206 40.8379 34.2391L47.7565 27.3901C49.152 26.0086 49.152 23.7687 47.7565 22.3872L40.8379 15.5382C39.4424 14.1567 37.1798 14.1567 35.7842 15.5382Z" fill="white"/>
<path d="M22.6148 2.50158L15.6963 9.35062C14.3007 10.7321 14.3007 12.972 15.6963 14.3535L22.6148 21.2025C24.0104 22.584 26.2729 22.584 27.6685 21.2025L34.587 14.3535C35.9826 12.972 35.9826 10.7321 34.587 9.35062L27.6685 2.50158C26.2729 1.12008 24.0103 1.12008 22.6148 2.50158Z" fill="white"/>
<path d="M9.44538 15.5387L2.52682 22.3877C1.1313 23.7692 1.1313 26.0091 2.52682 27.3906L9.44539 34.2396C10.8409 35.6211 13.1035 35.6211 14.499 34.2396L21.4176 27.3906C22.8131 26.0091 22.8131 23.7692 21.4176 22.3877L14.499 15.5387C13.1035 14.1572 10.8409 14.1572 9.44538 15.5387Z" fill="white"/>
</svg>
