<svg width="64" height="64" viewBox="0 0 64 64" fill="none" xmlns="http://www.w3.org/2000/svg">
<g clip-path="url(#clip0)">
<path d="M31.9787 5.24268C30.8213 5.24268 29.6587 5.47202 28.5653 5.92802L4.744 15.7787C3.40267 16.3334 3.43733 18.2 4.776 18.7547L28.728 28.2427C30.8264 29.0933 33.1736 29.0933 35.272 28.2427L59.224 18.7547C60.5653 18.232 60.5653 16.3334 59.256 15.7787L35.3707 5.92802C34.2975 5.47422 33.1439 5.24114 31.9787 5.24268ZM62.4 21.4827C62.1968 21.484 61.9957 21.5248 61.808 21.6027L35.1093 31.9414C34.8106 32.0637 34.5549 32.2719 34.3745 32.5396C34.1942 32.8074 34.0972 33.1225 34.096 33.4454V57.168C34.0985 57.4277 34.1642 57.6829 34.2874 57.9116C34.4106 58.1402 34.5877 58.3354 34.8032 58.4803C35.0187 58.6252 35.2663 58.7155 35.5245 58.7433C35.7828 58.7712 36.0439 58.7357 36.2853 58.64L62.9867 48.2667C63.286 48.1555 63.5439 47.9548 63.7252 47.6919C63.9065 47.429 64.0025 47.1167 64 46.7974V23.0747C63.9972 22.6522 63.8274 22.248 63.5276 21.9502C63.2279 21.6524 62.8225 21.4853 62.4 21.4854V21.4827ZM1.80267 21.5867C1.5659 21.5783 1.32996 21.619 1.10968 21.7061C0.889393 21.7933 0.689534 21.9252 0.522667 22.0933C0.229333 22.3894 0 22.7467 0 23.1733V45.4534C0 46.632 1.37333 47.4187 2.42133 46.8933L19.1413 38.8774L19.96 38.4854L27.8773 34.656C29.12 34.0694 29.024 32.2347 27.7147 31.744L2.35467 21.7013C2.1796 21.6281 1.99238 21.5883 1.80267 21.584V21.5867Z" fill="black"/>
</g>
<defs>
<clipPath id="clip0">
<rect width="64" height="64" fill="white"/>
</clipPath>
</defs>
</svg>
