<svg width="64" height="64" viewBox="0 0 64 64" fill="none" xmlns="http://www.w3.org/2000/svg">
<path d="M51.5622 48.0564C51.356 48.0001 51.106 48.0313 50.8185 48.1376C46.9685 49.9001 43.2247 51.1563 39.5872 51.9001C31.731 53.5001 24.0747 52.6626 16.6247 49.3938C14.556 48.4813 11.681 46.9438 7.99975 44.7688C7.90489 44.694 7.78917 44.6503 7.6685 44.6438C7.5435 44.6376 7.43725 44.6501 7.33725 44.7001C7.23725 44.7501 7.16225 44.8126 7.106 44.8938C7.04975 44.9751 7.03725 45.0876 7.081 45.2313C7.1185 45.3689 7.21225 45.5251 7.3685 45.6938C8.0185 46.4563 8.82475 47.2688 9.781 48.1313C10.7372 48.9938 12.006 49.9688 13.5872 51.0564C15.1685 52.1439 16.8247 53.1126 18.5435 53.9563C20.2685 54.8001 22.2685 55.5126 24.5497 56.0876C26.831 56.6626 29.1122 56.9501 31.3872 56.9501C33.6497 56.9501 35.8497 56.7188 37.981 56.2688C40.1185 55.8126 41.9185 55.2751 43.3872 54.6501C44.8497 54.0313 46.1997 53.3376 47.4372 52.5876C48.6747 51.8376 49.5872 51.2001 50.181 50.6938C50.7747 50.1813 51.1997 49.7813 51.4435 49.4813C51.731 49.1251 51.8747 48.8188 51.8747 48.5501C51.881 48.2688 51.7685 48.1063 51.5622 48.0564ZM32.9622 21.7563C32.0122 21.8376 30.8685 22.0126 29.5247 22.2751C28.181 22.5313 26.9372 22.8563 25.7872 23.2376C24.6372 23.6188 23.4622 24.1501 22.2685 24.8251C21.0685 25.5001 20.0497 26.2751 19.206 27.1376C18.3622 28.0001 17.6747 29.0813 17.1372 30.3876C16.5997 31.6876 16.331 33.1188 16.331 34.6813C16.331 36.3751 16.6247 37.8814 17.2247 39.2126C17.8185 40.5438 18.6122 41.5876 19.6122 42.3626C20.606 43.1376 21.7372 43.7439 22.9872 44.1876C24.2372 44.6313 25.5622 44.8314 26.9372 44.7751C28.3122 44.7188 29.656 44.5063 30.9622 44.1313C32.2622 43.7626 33.4872 43.1688 34.6247 42.3626C35.7622 41.5563 36.6935 40.6001 37.4247 39.5063C37.6935 39.9188 37.931 40.2251 38.1435 40.4251L38.6872 40.9813C39.0497 41.3501 39.606 41.8938 40.356 42.6126C41.0997 43.3313 41.8622 44.0313 42.6247 44.7188L49.1497 38.4751L48.7747 38.1688C48.506 37.9626 48.1872 37.6688 47.8247 37.2751C47.4622 36.8876 47.0997 36.4563 46.7497 35.9938C46.3935 35.5313 46.0872 34.9876 45.831 34.3751C45.5747 33.7626 45.4435 33.1688 45.4435 32.5938V16.1688C45.4435 15.5376 45.3247 14.8563 45.0872 14.1188C44.8435 13.3876 44.4185 12.5876 43.7935 11.7251C43.1685 10.8626 42.3935 10.0876 41.4685 9.4126C40.5372 8.7376 39.2997 8.1626 37.7435 7.7001C36.1935 7.2376 34.456 7.00635 32.5435 7.00635C30.5872 7.00635 28.7685 7.2376 27.0685 7.6876C25.3747 8.14385 23.9247 8.7501 22.7122 9.5126C21.506 10.2751 20.4685 11.1563 19.606 12.1626C18.7435 13.1688 18.0997 14.2188 17.681 15.3126C17.2622 16.4063 17.0497 17.5126 17.0497 18.6313L25.4997 19.3751C25.8435 18.3501 26.306 17.4626 26.8747 16.7001C27.4497 15.9376 27.9935 15.3876 28.4872 15.0438C28.9872 14.7001 29.5247 14.4251 30.0935 14.2188C30.6685 14.0126 31.056 13.9063 31.256 13.8813C31.456 13.8626 31.6122 13.8563 31.731 13.8563C33.3997 13.8563 34.556 14.3501 35.206 15.3313C35.6122 15.9251 35.8122 16.8251 35.8122 18.0376V21.5751C34.8622 21.6126 33.9122 21.6751 32.9622 21.7563ZM35.8185 31.2501C35.8185 32.2876 35.681 33.2313 35.4122 34.0626C34.8372 35.8813 33.7435 37.0251 32.1372 37.4876C30.7372 37.9001 29.406 37.6938 28.1435 36.8751C26.7997 36.0001 26.131 34.7626 26.131 33.1688C26.131 31.9251 26.4435 30.8626 27.0685 29.9751C27.6935 29.0938 28.5247 28.4313 29.5685 27.9938C30.6122 27.5563 31.631 27.2438 32.631 27.0626C33.6247 26.8751 34.6935 26.7626 35.8185 26.7251V31.2501ZM56.7685 44.9314C56.4997 44.5938 55.7747 44.3751 54.5872 44.2626C53.3997 44.1501 52.3685 44.1563 51.481 44.2876C50.5247 44.4001 49.5372 44.6751 48.5247 45.1251C47.506 45.5688 47.0622 45.9438 47.1747 46.2376L47.2185 46.3188L47.2747 46.3626L47.3622 46.3751H47.6497C47.6997 46.3751 47.7622 46.3688 47.8497 46.3626C47.9372 46.3563 48.0185 46.3438 48.0935 46.3376C48.1685 46.3314 48.2747 46.3188 48.4122 46.3126C48.5435 46.3064 48.6685 46.2876 48.7872 46.2688C48.806 46.2688 49.0185 46.2501 49.431 46.2126C49.8435 46.1751 50.1435 46.1501 50.3247 46.1313C50.506 46.1126 50.8122 46.0938 51.231 46.0751C51.6497 46.0564 51.9872 46.0564 52.2372 46.0751C52.4872 46.0938 52.7685 46.1188 53.0872 46.1438C53.406 46.1688 53.6622 46.2251 53.8622 46.3126C54.0622 46.3938 54.2122 46.5001 54.306 46.6313C54.631 47.0438 54.5685 47.9563 54.1185 49.3751C53.6685 50.7938 53.2435 51.9251 52.8435 52.7626C52.6685 53.1189 52.6685 53.3376 52.8435 53.4314C53.0185 53.5251 53.2622 53.4376 53.5872 53.1814C54.5622 52.4188 55.3747 51.2688 56.031 49.7251C56.4122 48.8126 56.6872 47.8626 56.8497 46.8689C56.9997 45.8751 56.9747 45.2313 56.7685 44.9314Z" fill="black"/>
</svg>
