<svg width="64" height="64" viewBox="0 0 64 64" fill="none" xmlns="http://www.w3.org/2000/svg">
<path d="M10.876 60.226H20.088V51.026H10.876V60.226ZM3.17405 43.326V51.026H10.874V43.326H3.17405ZM61.45 22.112C58.574 12.838 51.15 5.44998 41.874 2.53798C20.612 -4.10002 0.998047 11.712 0.998047 31.988H12.974C12.974 19.264 25.598 9.42598 38.986 14.276C41.4475 15.1702 43.6833 16.5925 45.5363 18.4431C47.3894 20.2937 48.8146 22.5277 49.712 24.988C54.6 38.364 44.75 50.964 32.038 50.988V51.026H32V63.002C52.326 63.002 68.1 43.402 61.45 22.114V22.112ZM32.038 50.988V39.076H20.088V51.026H32V50.988H32.038Z" fill="black"/>
</svg>
