<svg width="46" height="46" viewBox="0 0 46 46" fill="none" xmlns="http://www.w3.org/2000/svg">
<path fill-rule="evenodd" clip-rule="evenodd" d="M23 0C10.2925 0 0 10.2925 0 23C0 33.1775 6.58375 41.7737 15.7262 44.8212C16.8762 45.0225 17.3075 44.3325 17.3075 43.7287C17.3075 43.1825 17.2787 41.3712 17.2787 39.445C11.5 40.5087 10.005 38.0362 9.545 36.7425C9.28625 36.0812 8.165 34.04 7.1875 33.4937C6.3825 33.0625 5.2325 31.9987 7.15875 31.97C8.97 31.9412 10.2638 33.6375 10.695 34.3275C12.765 37.8062 16.0712 36.8287 17.3937 36.225C17.595 34.73 18.1987 33.7237 18.86 33.1487C13.7425 32.5737 8.395 30.59 8.395 21.7925C8.395 19.2912 9.28625 17.2212 10.7525 15.6112C10.5225 15.0362 9.7175 12.6787 10.9825 9.51625C10.9825 9.51625 12.9087 8.9125 17.3075 11.8737C19.1475 11.3562 21.1025 11.0975 23.0575 11.0975C25.0125 11.0975 26.9675 11.3562 28.8075 11.8737C33.2062 8.88375 35.1325 9.51625 35.1325 9.51625C36.3975 12.6787 35.5925 15.0362 35.3625 15.6112C36.8288 17.2212 37.72 19.2625 37.72 21.7925C37.72 30.6187 32.3438 32.5737 27.2262 33.1487C28.06 33.8675 28.7787 35.2475 28.7787 37.4037C28.7787 40.48 28.75 42.9525 28.75 43.7287C28.75 44.3325 29.1812 45.0512 30.3312 44.8212C34.8971 43.2797 38.8646 40.3452 41.6754 36.4308C44.4861 32.5163 45.9986 27.819 46 23C46 10.2925 35.7075 0 23 0Z" fill="black"/>
</svg>
