<svg width="64" height="64" viewBox="0 0 64 64" fill="none" xmlns="http://www.w3.org/2000/svg">
<g clip-path="url(#clip0)">
<path d="M14.376 0.0100469L27.042 35.906V35.886L28.042 38.708C33.614 54.468 36.604 62.916 36.614 62.926L38.49 63.04C41.574 63.166 45.396 63.52 48.292 63.862C48.958 63.946 49.532 63.966 49.574 63.946L35.856 25.04L29.388 6.77005C28.628 4.58896 27.8573 2.4116 27.076 0.238047L26.992 -0.00195312H14.388L14.376 0.0100469ZM37.062 0.0320469L37.03 14.178L37.01 28.334L35.844 25.042L34.344 56.532C35.824 60.71 36.614 62.938 36.626 62.948C36.638 62.958 37.48 63.02 38.49 63.062C41.584 63.198 45.396 63.542 48.302 63.896C48.968 63.968 49.552 64 49.584 63.968C49.626 63.948 49.636 49.5201 49.636 31.948L49.616 0.0320469H37.062ZM14.376 0.0100469V31.978C14.376 49.562 14.396 63.968 14.418 63.988C14.44 64.008 15.522 63.904 16.834 63.758C18.1712 63.5906 19.5115 63.4479 20.854 63.33C22.24 63.194 26.374 62.924 26.854 62.924C26.99 62.924 27 62.206 27.02 49.382L27.04 35.83L28.05 38.664L28.404 39.664L29.924 8.19605L29.414 6.73805L26.986 0.00804688L14.376 0.0100469Z" fill="black"/>
</g>
<defs>
<clipPath id="clip0">
<rect width="64" height="64" fill="white"/>
</clipPath>
</defs>
</svg>
