<svg width="64" height="64" viewBox="0 0 64 64" fill="none" xmlns="http://www.w3.org/2000/svg">
<g clip-path="url(#clip0)">
<path d="M11.8958 11.2178C13.8758 12.8318 14.6258 12.7178 18.3638 12.4678L53.6038 10.3538C54.3538 10.3538 53.7298 9.60379 53.4778 9.47779L47.6238 5.24779C46.5098 4.37179 45.0098 3.38379 42.1438 3.62179L8.0298 6.12179C6.7798 6.23579 6.52981 6.86179 7.02981 7.36179L11.8958 11.2178ZM14.0098 19.4378V56.5098C14.0098 58.4998 14.9998 59.2498 17.2398 59.1238L55.9698 56.8838C58.2098 56.7578 58.4698 55.3938 58.4698 53.7698V16.9478C58.4698 15.3218 57.8438 14.4578 56.4698 14.5838L16.0018 16.9478C14.5018 17.0738 14.0118 17.8118 14.0118 19.4278L14.0098 19.4378ZM52.2398 21.4158C52.4898 22.5418 52.2398 23.6558 51.1138 23.7918L49.2498 24.1678V51.5318C47.6238 52.4078 46.1358 52.9078 44.8958 52.9078C42.8958 52.9078 42.3958 52.2818 40.9058 50.4178L28.6978 31.2518V49.7938L32.5618 50.6698C32.5618 50.6698 32.5618 52.9098 29.4478 52.9098L20.8538 53.4098C20.6038 52.9098 20.8538 51.6598 21.7298 51.4198L23.9698 50.7938V26.2838L20.8558 26.0338C20.6058 24.9078 21.2318 23.2938 22.9698 23.1698L32.1878 22.5438L44.8958 41.9598V24.7818L41.6558 24.4058C41.4058 23.0418 42.3958 22.0418 43.6458 21.9258L52.2398 21.4158ZM5.1658 2.75979L40.6558 0.14579C45.0098 -0.23021 46.1358 0.0197904 48.8738 2.00979L60.2078 9.97779C62.0718 11.3418 62.6978 11.7178 62.6978 13.2078V56.8858C62.6978 59.6258 61.6978 61.2398 58.2178 61.4898L16.9878 63.9798C14.3838 64.1058 13.1338 63.7298 11.7578 61.9898L3.4138 51.1558C1.9238 49.1658 1.2998 47.6758 1.2998 45.9378V7.11579C1.2998 4.87579 2.2998 3.01179 5.1638 2.76179L5.1658 2.75979Z" fill="black"/>
</g>
<defs>
<clipPath id="clip0">
<rect width="64" height="64" fill="white"/>
</clipPath>
</defs>
</svg>
