<svg width="118" height="30" viewBox="0 0 118 30" fill="none" xmlns="http://www.w3.org/2000/svg">
<g clip-path="url(#clip0)">
<path d="M37.7031 23.512L39.1751 20.0885C40.7658 21.2772 42.8788 21.8954 44.9682 21.8954C46.5114 21.8954 47.4849 21.301 47.4849 20.3977C47.4612 17.8777 38.2491 19.8508 38.1779 13.527C38.1542 10.3177 41.0034 7.84528 45.0394 7.84528C47.4374 7.84528 49.8355 8.43951 51.5448 9.79458L50.1678 13.2894C48.6008 12.2908 46.6541 11.5777 44.802 11.5777C43.5437 11.5777 42.7128 12.172 42.7128 12.9328C42.7366 15.4053 52.0198 14.0502 52.1148 20.0885C52.1148 23.3694 49.337 25.6754 45.3482 25.6754C42.4277 25.6754 39.7448 24.9859 37.7031 23.512ZM94.1864 18.8523L98.2463 21.1108C96.7269 23.8447 93.8303 25.6754 90.4825 25.6754C85.5678 25.6754 81.5791 21.6815 81.5791 16.7604C81.5791 11.8392 85.5678 7.84528 90.4825 7.84528C93.8066 7.84528 96.7269 9.69951 98.2463 12.4099L94.1864 14.6682C93.4503 13.3844 92.0732 12.505 90.4825 12.505C88.132 12.505 86.2327 14.4067 86.2327 16.7604C86.2327 19.114 88.132 21.0157 90.4825 21.0157C92.0732 21.0157 93.4503 20.136 94.1862 18.8523H94.1864ZM54.1565 0.45166H59.2374V25.3424H54.1565V0.45166ZM100.241 0.45166H105.322V15.0723L111.067 8.20182H117.288L110.189 16.4749L117.858 25.3424H111.352L105.322 17.8777V25.3424H100.241V0.45166ZM74.3377 18.9V14.692C73.6016 13.4557 72.0821 12.505 70.3728 12.505C68.022 12.505 66.1229 14.4067 66.1229 16.7604C66.1229 19.114 68.022 21.0157 70.3728 21.0157C72.0821 21.0157 73.6016 20.1123 74.3377 18.8998V18.9ZM74.3377 8.20205H79.4187V25.3189H74.3377V23.2983C73.5067 24.7009 71.441 25.6757 69.2806 25.6757C64.8169 25.6757 61.3031 21.6817 61.3031 16.7368C61.3031 11.7919 64.8169 7.84551 69.2806 7.84551C71.441 7.84551 73.5067 8.82028 74.3377 10.2229V8.20158V8.20205Z" fill="black"/>
<path d="M6.29247 18.8758C6.29247 20.6112 4.89169 22.014 3.15833 22.014C2.74665 22.0144 2.33893 21.9335 1.95851 21.7759C1.5781 21.6184 1.23245 21.3872 0.941357 21.0957C0.650265 20.8042 0.419443 20.4581 0.262102 20.0772C0.104761 19.6963 0.0239913 19.288 0.0244157 18.8758C0.0244157 17.1404 1.4252 15.7378 3.15833 15.7378H6.29247V18.8758ZM7.85943 18.8758C7.85943 17.1404 9.26022 15.7378 10.9933 15.7378C12.7265 15.7378 14.1275 17.1404 14.1275 18.8758V26.721C14.1275 28.4564 12.7267 29.8593 10.9933 29.8593C10.5817 29.8596 10.174 29.7787 9.7936 29.6211C9.41321 29.4635 9.06759 29.2324 8.77652 28.9409C8.48545 28.6494 8.25465 28.3033 8.09733 27.9224C7.94 27.5415 7.85924 27.1332 7.85966 26.721V18.8758H7.85943Z" fill="#E01E5A"/>
<path d="M10.9927 6.27623C10.581 6.27659 10.1733 6.19567 9.79292 6.03808C9.41253 5.88049 9.06691 5.64934 8.77585 5.35785C8.48478 5.06636 8.25398 4.72025 8.09665 4.33934C7.93932 3.95844 7.85856 3.5502 7.85899 3.138C7.85876 1.40262 9.25954 0 10.9927 0C12.7258 0 14.1268 1.40262 14.1268 3.138V6.27623H10.9927ZM10.9927 7.869C12.7258 7.869 14.1268 9.27161 14.1268 11.007C14.1268 12.7424 12.726 14.1452 10.9927 14.1452H3.13392C2.72223 14.1456 2.31452 14.0647 1.9341 13.9071C1.55368 13.7496 1.20804 13.5184 0.916943 13.2269C0.625851 12.9354 0.395028 12.5893 0.237688 12.2084C0.0803469 11.8275 -0.000422783 11.4192 1.6642e-06 11.007C1.6642e-06 9.27161 1.40079 7.86923 3.13392 7.86923H10.9929L10.9927 7.869Z" fill="#36C5F0"/>
<path d="M23.5528 11.007C23.5528 9.27161 24.9536 7.869 26.6867 7.869C28.4198 7.869 29.8208 9.27161 29.8208 11.007C29.8208 12.7424 28.4201 14.1452 26.6867 14.1452H23.5528V11.007ZM21.9856 11.007C21.9856 12.7424 20.585 14.1452 18.8517 14.1452C18.44 14.1456 18.0323 14.0647 17.6519 13.9071C17.2715 13.7496 16.9258 13.5184 16.6347 13.2269C16.3436 12.9354 16.1128 12.5893 15.9555 12.2084C15.7981 11.8275 15.7174 11.4192 15.7178 11.007V3.138C15.7178 1.40262 17.1186 0 18.8517 0C20.5848 0 21.9858 1.40262 21.9858 3.138V11.0072L21.9856 11.007Z" fill="#2EB67D"/>
<path d="M18.8517 23.583C20.5848 23.583 21.9858 24.9856 21.9858 26.721C21.9858 28.4564 20.585 29.8593 18.8517 29.8593C18.44 29.8596 18.0323 29.7787 17.6519 29.6212C17.2715 29.4636 16.9258 29.2324 16.6347 28.9409C16.3436 28.6495 16.1128 28.3033 15.9555 27.9224C15.7981 27.5415 15.7174 27.1332 15.7178 26.721V23.583H18.8517ZM18.8517 22.0138C18.44 22.0142 18.0323 21.9333 17.6519 21.7757C17.2715 21.6182 16.9259 21.387 16.6348 21.0956C16.3437 20.8041 16.1129 20.458 15.9555 20.0771C15.7982 19.6962 15.7174 19.288 15.7178 18.8758C15.7178 17.1404 17.1186 15.7378 18.8517 15.7378H26.7107C28.4438 15.7378 29.8446 17.1404 29.8446 18.8758C29.8446 20.6112 28.4438 22.014 26.7104 22.014H18.8517V22.0138Z" fill="#ECB22E"/>
</g>
<defs>
<clipPath id="clip0">
<rect width="118" height="30" fill="white"/>
</clipPath>
</defs>
</svg>
