<svg width="64" height="64" viewBox="0 0 64 64" fill="none" xmlns="http://www.w3.org/2000/svg">
<path d="M25.5875 8C22.9375 8 20.7938 10.15 20.7938 12.8C20.7938 14.0688 21.3 15.2938 22.1938 16.1938C23.0938 17.0938 24.3125 17.6 25.5875 17.6H30.3813V12.8C30.3813 10.1563 28.2375 8.00625 25.5875 8ZM25.5875 20.8H12.7937C10.1437 20.8 8 22.95 8 25.6C8 28.25 10.15 30.4 12.7937 30.4H25.5812C28.2312 30.4 30.375 28.25 30.375 25.6C30.3813 22.95 28.2312 20.8 25.5875 20.8ZM38.375 30.4C41.025 30.4 43.175 28.25 43.1688 25.6V12.8C43.1688 10.15 41.025 8 38.375 8C35.725 8 33.5812 10.15 33.5812 12.8V25.6C33.5812 28.2563 35.725 30.4 38.375 30.4ZM55.9625 25.6C55.9625 22.95 53.8125 20.8 51.1688 20.8C48.525 20.8 46.375 22.95 46.375 25.6V30.4H51.1688C53.8125 30.4 55.9625 28.25 55.9625 25.6ZM51.1625 33.6H38.375C35.725 33.6 33.5812 35.75 33.5812 38.4C33.5812 39.6688 34.0875 40.8937 34.9813 41.7938C35.8813 42.6938 37.1 43.2 38.375 43.2H51.1625C53.8125 43.2 55.9562 41.05 55.9562 38.4C55.9625 35.75 53.8125 33.6062 51.1625 33.6ZM38.375 46.4H33.5812V51.2C33.5812 53.85 35.7313 56 38.375 56C41.025 56 43.175 53.85 43.1688 51.2C43.175 48.55 41.025 46.4062 38.375 46.4ZM25.5875 33.6C22.9375 33.6 20.7938 35.75 20.7938 38.4V51.2C20.7938 53.85 22.9437 56 25.5875 56C28.2375 56 30.3875 53.85 30.3813 51.2V38.4C30.3813 37.1313 29.875 35.9062 28.9813 35.0062C28.0813 34.1062 26.8562 33.6 25.5875 33.6ZM8 38.4C8 39.6688 8.50625 40.8937 9.4 41.7938C10.3 42.6938 11.5187 43.2 12.7937 43.2C15.4437 43.2 17.5938 41.05 17.5875 38.4V33.6H12.7937C10.15 33.6 8 35.75 8 38.4Z" fill="black"/>
</svg>
