<svg width="46" height="46" viewBox="0 0 46 46" fill="none" xmlns="http://www.w3.org/2000/svg">
<path d="M41.5078 0H4.49219C2.01122 0 0 2.01122 0 4.49219V41.5078C0 43.9888 2.01122 46 4.49219 46H41.5078C43.9888 46 46 43.9888 46 41.5078V4.49219C46 2.01122 43.9888 0 41.5078 0Z" fill="url(#paint0_linear)"/>
<path d="M37.864 5.97998H28.1465C26.9556 5.97998 25.9902 6.94537 25.9902 8.13623V23.9487C25.9902 25.1396 26.9556 26.105 28.1465 26.105H37.864C39.0548 26.105 40.0202 25.1396 40.0202 23.9487V8.13623C40.0202 6.94537 39.0548 5.97998 37.864 5.97998Z" fill="white"/>
<path d="M17.8542 5.97998H8.13672C6.94585 5.97998 5.98047 6.94537 5.98047 8.13623V35.4487C5.98047 36.6396 6.94585 37.605 8.13672 37.605H17.8542C19.0451 37.605 20.0105 36.6396 20.0105 35.4487V8.13623C20.0105 6.94537 19.0451 5.97998 17.8542 5.97998Z" fill="white"/>
<defs>
<linearGradient id="paint0_linear" x1="23" y1="0" x2="23" y2="46" gradientUnits="userSpaceOnUse">
<stop stop-color="#0091E6"/>
<stop offset="1" stop-color="#0079BF"/>
</linearGradient>
</defs>
</svg>
