<svg width="64" height="64" viewBox="0 0 64 64" fill="none" xmlns="http://www.w3.org/2000/svg">
<path d="M63.0484 13.1654C60.8217 14.152 58.4297 14.8187 55.915 15.12C58.5097 13.5675 60.4509 11.124 61.3764 8.24538C58.9386 9.69335 56.2706 10.7126 53.4884 11.2587C51.6174 9.26102 49.1392 7.93691 46.4386 7.49197C43.7379 7.04703 40.966 7.50615 38.553 8.79805C36.14 10.0899 34.2211 12.1423 33.0941 14.6366C31.9671 17.1308 31.6951 19.9274 32.3204 22.592C27.3809 22.344 22.5487 21.0602 18.1375 18.8238C13.7263 16.5874 9.8346 13.4485 6.71502 9.61071C5.64836 11.4507 5.03502 13.584 5.03502 15.856C5.03383 17.9014 5.53751 19.9154 6.50137 21.7193C7.46522 23.5233 8.85945 25.0615 10.5604 26.1974C8.58776 26.1346 6.65869 25.6016 4.93369 24.6427V24.8027C4.93349 27.6714 5.92578 30.4517 7.74218 32.672C9.55858 34.8923 12.0872 36.4159 14.899 36.984C13.0691 37.4793 11.1506 37.5522 9.28836 37.1974C10.0817 39.6657 11.627 41.8241 13.708 43.3705C15.789 44.9169 18.3015 45.7739 20.8937 45.8214C16.4932 49.2758 11.0587 51.1496 5.46436 51.1414C4.47337 51.1416 3.48323 51.0838 2.49902 50.968C8.17763 54.6192 14.7879 56.5569 21.539 56.5494C44.3924 56.5494 56.8857 37.6214 56.8857 21.2054C56.8857 20.672 56.8724 20.1334 56.8484 19.6C59.2785 17.8426 61.3761 15.6664 63.043 13.1734L63.0484 13.1654Z" fill="black"/>
</svg>
