<svg width="102" height="46" viewBox="0 0 102 46" fill="none" xmlns="http://www.w3.org/2000/svg">
<path d="M48.2615 16.4755C49.4343 16.4755 50.5231 16.6681 51.5277 17.0532C52.5308 17.4381 53.3906 18.0344 54.108 18.8421C54.8248 19.6512 55.3854 20.6778 55.79 21.9216C56.194 23.1675 56.3958 24.6354 56.3958 26.3293C56.3958 29.7166 55.4637 32.3667 53.6 34.2781C51.7351 36.19 49.0957 37.1462 45.6799 37.1462C45.1063 37.1462 44.52 37.1074 43.9202 37.0304C43.3197 36.9533 42.799 36.8501 42.3557 36.7225V45.768C42.0252 45.8208 41.6925 45.8592 41.3586 45.8832C41.0397 45.9074 40.72 45.9202 40.4002 45.9218C40.1131 45.9218 39.7943 45.9084 39.4423 45.8832C39.1213 45.8609 38.8016 45.8224 38.4845 45.768V16.9368C38.7495 16.8856 39.0169 16.8472 39.2857 16.8218C39.5652 16.7961 39.8458 16.7832 40.1264 16.7833C40.3868 16.7833 40.6609 16.7965 40.948 16.8218C41.2343 16.8478 41.5086 16.8863 41.7694 16.9368C41.7951 16.9893 41.8282 17.1488 41.8666 17.4187C41.9059 17.688 41.9451 17.9766 41.9842 18.2844C42.0234 18.5923 42.0625 18.8879 42.1017 19.17C42.1409 19.4525 42.1599 19.632 42.1599 19.709C42.4208 19.2982 42.7334 18.9007 43.0988 18.5158C43.4636 18.1309 43.9012 17.7837 44.4092 17.4767C44.9173 17.168 45.4908 16.9249 46.1305 16.7454C46.768 16.5657 47.4786 16.4755 48.2615 16.4755ZM26.2817 16.4755C28.8887 16.4755 30.8705 17.0599 32.2262 18.2266C33.5819 19.3947 34.2602 21.2616 34.2602 23.8272V36.1835C33.3478 36.3889 32.2398 36.6003 30.9361 36.8185C29.6178 37.0373 28.2833 37.1466 26.9465 37.1454C25.6685 37.1454 24.5155 37.0304 23.4853 36.799C22.4553 36.5676 21.5818 36.1967 20.8652 35.6822C20.1478 35.1703 19.5938 34.5147 19.2027 33.7196C18.8116 32.9246 18.6164 31.9625 18.6164 30.8322C18.6164 29.73 18.8439 28.7608 19.3005 27.9263C19.749 27.1015 20.3849 26.3902 21.1582 25.8481C21.9406 25.2971 22.8402 24.8854 23.8568 24.6169C24.8743 24.347 25.9429 24.2119 27.0643 24.2119C27.8984 24.2119 28.5827 24.232 29.1168 24.2697C29.6513 24.309 30.101 24.3537 30.4665 24.4048V23.6735C30.4665 22.159 30.0755 21.1073 29.2933 20.517C28.511 19.9272 27.3768 19.632 25.8907 19.632C24.9774 19.632 24.1244 19.7031 23.3293 19.8435C22.5428 19.9825 21.7657 20.1688 21.0022 20.4012C20.5062 19.5543 20.2592 18.5415 20.2592 17.3603C21.1447 17.0784 22.1222 16.8604 23.1922 16.7061C24.2609 16.5519 25.2904 16.4755 26.2819 16.4755H26.2817ZM16.309 16.9366L16.5043 17.4379L5.86659 33.6429H15.8399C15.9176 34.1568 15.9574 34.682 15.9574 35.2205C15.9574 35.7351 15.9176 36.2217 15.8399 36.6844H0.195832L0 36.1452L10.56 19.9782H1.25169C1.1734 19.5162 1.13415 19.0035 1.13415 18.4383C1.13415 17.8997 1.1734 17.3986 1.25169 16.9365H16.309V16.9366ZM27.4553 27.1758C25.8381 27.1758 24.6059 27.4716 23.7596 28.0614C22.9112 28.6523 22.4884 29.5505 22.4884 30.7557C22.4884 31.5257 22.6309 32.1294 22.9187 32.5649C23.205 33.0017 23.5638 33.3347 23.9941 33.566C24.4244 33.7966 24.8998 33.9376 25.4213 33.9895C25.9429 34.0414 26.4385 34.0665 26.9075 34.0665C27.5071 34.0665 28.1267 34.0349 28.765 33.9696C29.4041 33.9057 29.9707 33.81 30.4665 33.6816V27.4073C30.0755 27.3562 29.5804 27.3055 28.9804 27.2538C28.3807 27.2027 27.8721 27.176 27.4553 27.176V27.1758ZM47.4011 19.7855C46.7588 19.7837 46.1219 19.9015 45.5239 20.1327C44.9234 20.3627 44.3897 20.7088 43.9202 21.171C43.4508 21.633 43.0733 22.2174 42.7866 22.9227C42.4989 23.6296 42.3557 24.4685 42.3557 25.4445V33.4503C42.8493 33.6302 43.3604 33.7592 43.8809 33.8354C44.4025 33.9118 45.0802 33.9509 45.9149 33.9509C46.8539 33.9509 47.7139 33.8033 48.496 33.508C49.2784 33.2144 49.9497 32.7575 50.5097 32.1412C51.0703 31.5257 51.5134 30.7498 51.8397 29.8123C52.1652 28.8762 52.3288 27.7667 52.3288 26.4836C52.3288 24.4307 51.9437 22.8013 51.1749 21.5946C50.4057 20.3892 49.1471 19.7855 47.4011 19.7855ZM78.689 16.4751C80.0704 16.4751 81.2828 16.7065 82.326 17.1684C83.3689 17.6304 84.2424 18.2653 84.9469 19.0737C85.6501 19.8822 86.1844 20.8441 86.5498 21.9605C86.9146 23.0767 87.0976 24.2886 87.0976 25.5976C87.0976 25.9574 87.0841 26.3356 87.0578 26.7333C87.0319 27.1321 87.0058 27.4712 86.9801 27.7529H73.3304C73.383 29.909 73.9498 31.4874 75.0318 32.488C76.1141 33.4886 77.7109 33.9899 79.823 33.9899C81.6747 33.9899 83.4338 33.6687 85.1029 33.027C85.3116 33.4121 85.4806 33.8802 85.6115 34.4318C85.7395 34.9691 85.818 35.5167 85.8459 36.0679C84.9853 36.4277 84.0396 36.6962 83.0109 36.8765C81.9801 37.0554 80.8398 37.1458 79.5889 37.1458C77.7628 37.1458 76.1986 36.8957 74.8955 36.395C73.5918 35.8943 72.5156 35.189 71.6685 34.2783C70.8217 33.3675 70.2021 32.2892 69.8108 31.0445C69.42 29.8001 69.2241 28.4339 69.2241 26.9446C69.2241 25.4826 69.413 24.1164 69.7915 22.8453C70.169 21.5754 70.7497 20.4726 71.5315 19.5353C72.3138 18.5991 73.298 17.8553 74.4841 17.3027C75.6703 16.7509 77.072 16.4751 78.689 16.4751ZM65.0011 16.9366V36.6844C64.6837 36.7384 64.3637 36.7766 64.0424 36.7988C63.7235 36.8229 63.4039 36.8358 63.084 36.8373C62.823 36.8373 62.5164 36.824 62.1652 36.7988C61.844 36.7767 61.5241 36.7385 61.2068 36.6844V19.9396H58.6639C58.6121 19.7342 58.5727 19.4969 58.5472 19.2276C58.5213 18.9653 58.5082 18.7019 58.508 18.4383C58.508 18.1824 58.5207 17.9186 58.5472 17.6493C58.5727 17.3799 58.6119 17.1427 58.6639 16.9366H65.0009H65.0011ZM83.2649 24.9055C83.2649 24.187 83.1669 23.5009 82.9716 22.8453C82.7758 22.1911 82.4887 21.6206 82.111 21.1329C81.7321 20.6453 81.2506 20.254 80.6635 19.9593C80.0772 19.6642 79.3793 19.516 78.5715 19.516C76.9807 19.516 75.7621 19.9911 74.9144 20.9406C74.0673 21.8901 73.5526 23.2117 73.3695 24.9057H83.2649V24.9055ZM93.0051 16.7833C93.2915 16.7833 93.578 16.7967 93.8657 16.8218C94.1522 16.8478 94.413 16.8863 94.648 16.9368C94.7257 17.3218 94.804 17.8297 94.8823 18.4574C94.96 19.0869 94.9999 19.6188 94.9999 20.0556C95.5471 19.1834 96.2711 18.4254 97.1703 17.7837C98.07 17.1429 99.2231 16.8218 100.632 16.8218C100.84 16.8218 101.055 16.8277 101.277 16.8411C101.497 16.8543 101.688 16.8737 101.844 16.8981C101.897 17.1397 101.936 17.3841 101.961 17.6302C101.987 17.8869 102 18.156 102 18.4387C102 18.7464 101.98 19.0678 101.942 19.4006C101.904 19.7224 101.859 20.0432 101.805 20.3627C101.593 20.3117 101.377 20.286 101.159 20.2862H100.632C99.9277 20.2862 99.2562 20.3825 98.6171 20.5748C97.9776 20.7674 97.4046 21.1073 96.8958 21.5946C96.3878 22.0826 95.9834 22.7499 95.6842 23.597C95.3841 24.4433 95.2341 25.5343 95.2341 26.8681V36.684C94.9473 36.7345 94.6277 36.7731 94.2759 36.799C93.9245 36.8246 93.6043 36.8375 93.3184 36.8375C93.0308 36.8375 92.7118 36.8244 92.36 36.799C92.0259 36.7751 91.693 36.7367 91.3623 36.684V16.9368C91.6345 16.8882 91.9085 16.8499 92.1837 16.8218C92.4567 16.7958 92.7308 16.7829 93.0051 16.7833ZM62.2937 0C62.6605 0.000589744 63.0213 0.0312564 63.3719 0.0890513V3.81879L66.0514 1.18126C66.6431 1.5958 67.1605 2.10502 67.5822 2.68785L64.9027 5.32519H68.692C68.7508 5.67019 68.7821 6.02384 68.7821 6.38555V6.3942C68.7821 6.75591 68.7508 7.11014 68.692 7.45534H64.9019L67.5822 10.0919C67.3717 10.3826 67.1372 10.6557 66.8811 10.9083C66.6246 11.1604 66.3474 11.3912 66.0524 11.5983L63.3719 8.96115V12.6907C63.0158 12.7494 62.6555 12.7793 62.2945 12.7799H62.2849C61.9242 12.7793 61.564 12.7494 61.2082 12.6907V8.96115L58.5287 11.5983C57.9369 11.1838 57.4195 10.6745 56.9979 10.0917L59.6776 7.45514H55.888C55.8277 7.1039 55.7975 6.74828 55.7976 6.39203V6.38732C55.7976 6.28549 55.8048 6.15692 55.8149 6.02462L55.8223 5.93616C55.849 5.62655 55.888 5.32499 55.888 5.32499H59.6776L56.9979 2.68766C57.2076 2.39696 57.4419 2.12431 57.6983 1.87263C57.955 1.61958 58.2328 1.38824 58.5287 1.18106L61.2082 3.81859V0.0890513C61.5588 0.0312564 61.919 0.000589744 62.2863 0H62.2937ZM62.2931 4.79265H62.2871C61.8046 4.79265 61.3428 4.87973 60.9157 5.03798C60.7512 5.46922 60.6668 5.92616 60.6665 6.38692V6.39282C60.6667 6.85365 60.7513 7.31065 60.9163 7.74176C61.3545 7.90434 61.8188 7.98745 62.2869 7.98709H62.2931C62.7754 7.98709 63.2374 7.90001 63.6637 7.74176C63.8288 7.31068 63.9132 6.85364 63.913 6.39282V6.38692C63.913 5.91218 63.8245 5.45749 63.6637 5.03798C63.2256 4.87541 62.7612 4.7923 62.2931 4.79265Z" fill="#FF4A00"/>
</svg>
