<svg width="64" height="64" viewBox="0 0 64 64" fill="none" xmlns="http://www.w3.org/2000/svg">
<path d="M0 21.3333C0 15.6754 2.24761 10.2492 6.24839 6.24839C10.2492 2.24761 15.6754 0 21.3333 0L42.6667 0C48.3246 0 53.7508 2.24761 57.7516 6.24839C61.7524 10.2492 64 15.6754 64 21.3333V42.6667C64 48.3246 61.7524 53.7508 57.7516 57.7516C53.7508 61.7524 48.3246 64 42.6667 64H21.3333C15.6754 64 10.2492 61.7524 6.24839 57.7516C2.24761 53.7508 0 48.3246 0 42.6667V21.3333Z" fill="black"/>
<path d="M13.333 24.0002C13.333 23.2929 13.614 22.6146 14.1141 22.1145C14.6142 21.6144 15.2924 21.3335 15.9997 21.3335H31.9997C34.1214 21.3335 36.1562 22.1763 37.6565 23.6766C39.1568 25.1769 39.9997 27.2118 39.9997 29.3335V40.0002C39.9997 40.7074 39.7187 41.3857 39.2186 41.8858C38.7185 42.3859 38.0403 42.6668 37.333 42.6668H21.333C19.2113 42.6668 17.1764 41.824 15.6762 40.3237C14.1759 38.8234 13.333 36.7886 13.333 34.6668V24.0002Z" fill="white"/>
<path d="M41.333 31.3387C41.3325 30.0459 41.8016 28.7969 42.653 27.824L47.1597 22.672C48.3783 21.2854 50.6663 22.144 50.6663 23.9894V40.0107C50.6663 41.8587 48.3783 42.7174 47.1623 41.328L42.653 36.176C41.8022 35.2039 41.3331 33.9559 41.333 32.664V31.336V31.3387Z" fill="white"/>
</svg>
