<svg width="24" height="24" viewBox="0 0 24 24" fill="none" xmlns="http://www.w3.org/2000/svg">
<path d="M12 0C5.38319 0 0 5.38321 0 12C0 18.6168 5.38319 24 12 24C18.6168 24 24 18.6168 24 12C24 5.3832 18.6168 0 12 0Z" fill="#C19F85"/>
<path d="M8.842 8.84221C9.88844 8.84221 10.7367 7.99391 10.7367 6.94747C10.7367 5.90104 9.88844 5.05273 8.842 5.05273C7.79557 5.05273 6.94727 5.90104 6.94727 6.94747C6.94727 7.99391 7.79557 8.84221 8.842 8.84221Z" fill="#87613E"/>
<path d="M15.7895 10.1054C16.4871 10.1054 17.0527 9.53988 17.0527 8.84226C17.0527 8.14464 16.4871 7.5791 15.7895 7.5791C15.0919 7.5791 14.5264 8.14464 14.5264 8.84226C14.5264 9.53988 15.0919 10.1054 15.7895 10.1054Z" fill="#DDC2B6"/>
<path d="M10.7368 18.3159C11.4344 18.3159 11.9999 17.7503 11.9999 17.0527C11.9999 16.3551 11.4344 15.7896 10.7368 15.7896C10.0392 15.7896 9.47363 16.3551 9.47363 17.0527C9.47363 17.7503 10.0392 18.3159 10.7368 18.3159Z" fill="#DDC2B6"/>
<path d="M5.68406 13.8945C6.38168 13.8945 6.94721 13.3289 6.94721 12.6313C6.94721 11.9337 6.38168 11.3682 5.68406 11.3682C4.98643 11.3682 4.4209 11.9337 4.4209 12.6313C4.4209 13.3289 4.98643 13.8945 5.68406 13.8945Z" fill="#87613E"/>
<path d="M17.0529 17.0527C18.0994 17.0527 18.9477 16.2044 18.9477 15.1579C18.9477 14.1115 18.0994 13.2632 17.0529 13.2632C16.0065 13.2632 15.1582 14.1115 15.1582 15.1579C15.1582 16.2044 16.0065 17.0527 17.0529 17.0527Z" fill="#87613E"/>
</svg>
