<svg width="240" height="50" viewBox="0 0 240 50" fill="none" xmlns="http://www.w3.org/2000/svg">
<g clip-path="url(#clip0)">
<path d="M18.2804 1.97834C20.9175 -0.658795 25.1932 -0.658795 27.8303 1.97834C30.4411 4.5891 30.4672 8.80576 27.9086 11.4486L27.8303 11.5282L16.4229 22.9356C15.8351 23.5235 15.8351 24.4766 16.4229 25.0645C16.9983 25.6398 17.9235 25.6521 18.5138 25.1012L18.5518 25.0645L24.24 19.3763C26.7936 16.8226 30.9338 16.8226 33.4875 19.3763C36.0156 21.9044 36.0409 25.9875 33.5633 28.5467L33.4875 28.6238L21.9909 40.1204C21.4031 40.7082 21.4031 41.6613 21.9909 42.2492C22.5663 42.8246 23.4915 42.8368 24.0818 42.2859L24.1198 42.2492L39.5996 26.7694C41.1234 25.2456 41.1502 22.7886 39.6726 21.2321L39.6217 21.1793L31.8439 13.2778C30.8189 12.2364 30.8322 10.5613 31.8735 9.53633C32.8988 8.5271 34.5385 8.5244 35.5672 9.51856L35.6149 9.56589L43.3926 17.4675C46.9244 21.0555 46.9372 26.7987 43.4479 30.4024L43.3411 30.5109L27.8613 45.9907C25.2071 48.645 20.9036 48.645 18.2494 45.9907C15.6217 43.363 15.5954 39.119 18.1706 36.4589L18.2494 36.3788L29.7459 24.8823C30.2332 24.395 30.2332 23.6051 29.7459 23.1178C29.2703 22.6422 28.5062 22.6309 28.0168 23.0838L27.9815 23.1178L22.2933 28.806C19.639 31.4603 15.3356 31.4603 12.6814 28.806C10.0537 26.1783 10.0274 21.9342 12.6026 19.2742L12.6814 19.1941L24.0888 7.78671C24.6595 7.21597 24.6595 6.29062 24.0888 5.71988C23.5304 5.16155 22.6327 5.14941 22.0597 5.68347L22.0219 5.71988L6.54792 21.1939C4.99813 22.7437 4.99813 25.2564 6.54792 26.8062L14.1452 34.4035C15.1784 35.4367 15.1784 37.1118 14.1452 38.145C13.1279 39.1623 11.4883 39.178 10.4518 38.192L10.4037 38.145L2.80638 30.5477C-0.773648 26.9677 -0.809449 21.1856 2.69898 17.5615L2.80638 17.4523L18.2804 1.97834Z" fill="#FF5930"/>
</g>
<defs>
<clipPath id="clip0">
<rect width="46.1102" height="48" fill="white"/>
</clipPath>
</defs>
</svg>
