<svg width="226" height="48" viewBox="0 0 226 48" fill="none" xmlns="http://www.w3.org/2000/svg">
<path d="M69.951 33.7744C68.4471 33.7744 67.1288 33.5107 65.996 32.9834C64.8632 32.4561 63.9746 31.7041 63.33 30.7276C62.705 29.751 62.3828 28.589 62.3633 27.2413H65.6444C65.664 28.3351 66.0448 29.2628 66.787 30.0245C67.5292 30.7862 68.5741 31.167 69.9217 31.167C71.1131 31.167 72.0408 30.8838 72.7048 30.3174C73.3884 29.7315 73.7302 28.9893 73.7302 28.0909C73.7302 27.3683 73.5642 26.7824 73.2322 26.3331C72.9197 25.8839 72.4802 25.5129 71.9138 25.2199C71.367 24.9269 70.7322 24.6633 70.0096 24.4289C69.2869 24.1945 68.5252 23.9406 67.7245 23.6672C66.1425 23.1399 64.9511 22.4563 64.1503 21.6164C63.3691 20.7766 62.9785 19.6731 62.9785 18.306C62.9589 17.1536 63.2226 16.1478 63.7695 15.2884C64.3359 14.4291 65.1171 13.765 66.1132 13.2963C67.1288 12.808 68.3104 12.5639 69.658 12.5639C70.9861 12.5639 72.1482 12.808 73.1443 13.2963C74.1599 13.7846 74.9509 14.4681 75.5173 15.347C76.0837 16.2064 76.3767 17.2122 76.3962 18.3646H73.115C73.115 17.8372 72.9783 17.3392 72.7048 16.8704C72.4314 16.3822 72.031 15.9818 71.5037 15.6693C70.9764 15.3568 70.3318 15.2006 69.5701 15.2006C68.5936 15.181 67.7831 15.4252 67.1386 15.933C66.5136 16.4408 66.2011 17.1439 66.2011 18.0423C66.2011 18.8431 66.4354 19.4583 66.9042 19.888C67.3729 20.3176 68.0174 20.679 68.8377 20.9719C69.658 21.2454 70.5955 21.5676 71.6502 21.9387C72.6658 22.2707 73.574 22.6711 74.3747 23.1399C75.1755 23.6086 75.8103 24.2238 76.279 24.9855C76.7673 25.7472 77.0114 26.714 77.0114 27.8859C77.0114 28.921 76.7477 29.8878 76.2204 30.7862C75.6931 31.6651 74.9021 32.3877 73.8474 32.9541C72.7927 33.501 71.4939 33.7744 69.951 33.7744ZM85.2112 33.7744C83.9807 33.7744 82.9651 33.5693 82.1643 33.1592C81.3636 32.749 80.7679 32.2119 80.3773 31.5479C79.9867 30.8643 79.7913 30.1221 79.7913 29.3214C79.7913 27.9151 80.3382 26.8019 81.4319 25.9816C82.5257 25.1613 84.0881 24.7511 86.1193 24.7511H89.9279V24.4875C89.9279 23.3547 89.6154 22.5051 88.9904 21.9387C88.3849 21.3723 87.5939 21.0891 86.6174 21.0891C85.758 21.0891 85.0061 21.3039 84.3616 21.7336C83.7366 22.1438 83.3557 22.759 83.219 23.5793H80.1136C80.2113 22.5246 80.5628 21.6262 81.1683 20.884C81.7933 20.1223 82.5745 19.5462 83.512 19.1556C84.469 18.7454 85.5139 18.5403 86.6467 18.5403C88.6779 18.5403 90.2501 19.0774 91.3634 20.1516C92.4766 21.2063 93.0333 22.6516 93.0333 24.4875V33.4229H90.338L90.0743 30.9327C89.6642 31.7334 89.0685 32.4072 88.2873 32.9541C87.506 33.501 86.4807 33.7744 85.2112 33.7744ZM85.8264 31.2549C86.6662 31.2549 87.3693 31.0596 87.9357 30.669C88.5216 30.2589 88.9709 29.7218 89.2833 29.0577C89.6154 28.3937 89.8204 27.6612 89.8986 26.8605H86.4416C85.2112 26.8605 84.3323 27.0753 83.8049 27.505C83.2971 27.9347 83.0432 28.4718 83.0432 29.1163C83.0432 29.7803 83.2874 30.3077 83.7756 30.6983C84.2834 31.0694 84.967 31.2549 85.8264 31.2549ZM101.576 33.7744C100.345 33.7744 99.3298 33.5693 98.5291 33.1592C97.7283 32.749 97.1326 32.2119 96.742 31.5479C96.3514 30.8643 96.1561 30.1221 96.1561 29.3214C96.1561 27.9151 96.7029 26.8019 97.7967 25.9816C98.8904 25.1613 100.453 24.7511 102.484 24.7511H106.293V24.4875C106.293 23.3547 105.98 22.5051 105.355 21.9387C104.75 21.3723 103.959 21.0891 102.982 21.0891C102.123 21.0891 101.371 21.3039 100.726 21.7336C100.101 22.1438 99.7205 22.759 99.5837 23.5793H96.4783C96.576 22.5246 96.9275 21.6262 97.533 20.884C98.158 20.1223 98.9392 19.5462 99.8767 19.1556C100.834 18.7454 101.879 18.5403 103.011 18.5403C105.043 18.5403 106.615 19.0774 107.728 20.1516C108.841 21.2063 109.398 22.6516 109.398 24.4875V33.4229H106.703L106.439 30.9327C106.029 31.7334 105.433 32.4072 104.652 32.9541C103.871 33.501 102.845 33.7744 101.576 33.7744ZM102.191 31.2549C103.031 31.2549 103.734 31.0596 104.3 30.669C104.886 30.2589 105.336 29.7218 105.648 29.0577C105.98 28.3937 106.185 27.6612 106.263 26.8605H102.806C101.576 26.8605 100.697 27.0753 100.17 27.505C99.6619 27.9347 99.408 28.4718 99.408 29.1163C99.408 29.7803 99.6521 30.3077 100.14 30.6983C100.648 31.0694 101.332 31.2549 102.191 31.2549ZM119.903 33.7744C118.4 33.7744 117.081 33.5107 115.948 32.9834C114.816 32.4561 113.927 31.7041 113.283 30.7276C112.658 29.751 112.335 28.589 112.316 27.2413H115.597C115.616 28.3351 115.997 29.2628 116.739 30.0245C117.482 30.7862 118.527 31.167 119.874 31.167C121.066 31.167 121.993 30.8838 122.657 30.3174C123.341 29.7315 123.683 28.9893 123.683 28.0909C123.683 27.3683 123.517 26.7824 123.185 26.3331C122.872 25.8839 122.433 25.5129 121.866 25.2199C121.319 24.9269 120.685 24.6633 119.962 24.4289C119.239 24.1945 118.478 23.9406 117.677 23.6672C116.095 23.1399 114.904 22.4563 114.103 21.6164C113.322 20.7766 112.931 19.6731 112.931 18.306C112.911 17.1536 113.175 16.1478 113.722 15.2884C114.288 14.4291 115.07 13.765 116.066 13.2963C117.081 12.808 118.263 12.5639 119.611 12.5639C120.939 12.5639 122.101 12.808 123.097 13.2963C124.112 13.7846 124.903 14.4681 125.47 15.347C126.036 16.2064 126.329 17.2122 126.349 18.3646H123.067C123.067 17.8372 122.931 17.3392 122.657 16.8704C122.384 16.3822 121.984 15.9818 121.456 15.6693C120.929 15.3568 120.284 15.2006 119.523 15.2006C118.546 15.181 117.736 15.4252 117.091 15.933C116.466 16.4408 116.154 17.1439 116.154 18.0423C116.154 18.8431 116.388 19.4583 116.857 19.888C117.325 20.3176 117.97 20.679 118.79 20.9719C119.611 21.2454 120.548 21.5676 121.603 21.9387C122.618 22.2707 123.526 22.6711 124.327 23.1399C125.128 23.6086 125.763 24.2238 126.231 24.9855C126.72 25.7472 126.964 26.714 126.964 27.8859C126.964 28.921 126.7 29.8878 126.173 30.7862C125.646 31.6651 124.855 32.3877 123.8 32.9541C122.745 33.501 121.446 33.7744 119.903 33.7744ZM137.74 33.4229V12.9154H145.475C147.603 12.9154 149.215 13.4135 150.308 14.4096C151.402 15.4056 151.949 16.6556 151.949 18.1595C151.949 19.468 151.597 20.5129 150.894 21.2942C150.191 22.0559 149.342 22.5735 148.346 22.8469C149.127 23.0031 149.82 23.3156 150.426 23.7844C151.051 24.2531 151.539 24.839 151.89 25.5421C152.242 26.2453 152.418 27.007 152.418 27.8273C152.418 28.8819 152.154 29.8389 151.627 30.6983C151.119 31.5381 150.367 32.2022 149.371 32.6904C148.375 33.1787 147.154 33.4229 145.709 33.4229H137.74ZM140.846 21.7043H145.094C146.285 21.7043 147.193 21.4309 147.818 20.884C148.443 20.3176 148.756 19.5462 148.756 18.5696C148.756 17.6126 148.443 16.8509 147.818 16.2845C147.213 15.7181 146.285 15.4349 145.035 15.4349H140.846V21.7043ZM140.846 30.8741H145.299C146.549 30.8741 147.516 30.5811 148.199 29.9952C148.902 29.4093 149.254 28.589 149.254 27.5343C149.254 26.4796 148.892 25.6496 148.17 25.0441C147.447 24.4191 146.471 24.1066 145.24 24.1066H140.846V30.8741ZM155.704 33.4229V12.3295H158.81V33.4229H155.704ZM169.539 33.7744C168.152 33.7744 166.903 33.4619 165.789 32.8369C164.696 32.1924 163.826 31.3038 163.182 30.171C162.537 29.0186 162.215 27.6808 162.215 26.1574C162.215 24.634 162.537 23.3059 163.182 22.1731C163.846 21.0208 164.735 20.1321 165.848 19.5071C166.961 18.8626 168.201 18.5403 169.568 18.5403C170.955 18.5403 172.195 18.8626 173.289 19.5071C174.402 20.1321 175.281 21.0208 175.926 22.1731C176.59 23.3059 176.922 24.634 176.922 26.1574C176.922 27.6808 176.59 29.0186 175.926 30.171C175.281 31.3038 174.402 32.1924 173.289 32.8369C172.176 33.4619 170.926 33.7744 169.539 33.7744ZM169.539 31.1084C170.281 31.1084 170.965 30.9229 171.59 30.5518C172.234 30.1807 172.752 29.6339 173.143 28.9112C173.533 28.169 173.729 27.2511 173.729 26.1574C173.729 25.0636 173.533 24.1555 173.143 23.4328C172.772 22.6906 172.264 22.134 171.619 21.7629C170.994 21.3918 170.311 21.2063 169.568 21.2063C168.826 21.2063 168.133 21.3918 167.488 21.7629C166.863 22.134 166.356 22.6906 165.965 23.4328C165.574 24.1555 165.379 25.0636 165.379 26.1574C165.379 27.2511 165.574 28.169 165.965 28.9112C166.356 29.6339 166.863 30.1807 167.488 30.5518C168.113 30.9229 168.797 31.1084 169.539 31.1084ZM187.165 33.7744C185.739 33.7744 184.46 33.4521 183.327 32.8076C182.214 32.1631 181.335 31.2745 180.69 30.1417C180.065 28.9893 179.753 27.6612 179.753 26.1574C179.753 24.6535 180.065 23.3352 180.69 22.2024C181.335 21.05 182.214 20.1516 183.327 19.5071C184.46 18.8626 185.739 18.5403 187.165 18.5403C188.962 18.5403 190.466 19.0091 191.676 19.9466C192.907 20.884 193.698 22.1535 194.049 23.7551H190.798C190.602 22.9543 190.173 22.3293 189.508 21.8801C188.844 21.4309 188.063 21.2063 187.165 21.2063C186.403 21.2063 185.7 21.4016 185.055 21.7922C184.411 22.1633 183.893 22.7199 183.503 23.4621C183.112 24.1848 182.917 25.0832 182.917 26.1574C182.917 27.2316 183.112 28.1398 183.503 28.8819C183.893 29.6046 184.411 30.1612 185.055 30.5518C185.7 30.9424 186.403 31.1377 187.165 31.1377C188.063 31.1377 188.844 30.9131 189.508 30.4639C190.173 30.0147 190.602 29.38 190.798 28.5597H194.049C193.717 30.1221 192.936 31.3819 191.706 32.3389C190.475 33.2959 188.962 33.7744 187.165 33.7744ZM197.417 33.4229V12.3295H200.523V24.8976L206.089 18.8919H209.81L203.628 25.4836L210.718 33.4229H206.792L200.523 25.9816V33.4229H197.417ZM218.152 33.7744C216.316 33.7744 214.803 33.3252 213.611 32.4268C212.42 31.5284 211.736 30.337 211.561 28.8526H214.695C214.852 29.5167 215.223 30.0928 215.809 30.5811C216.394 31.0499 217.166 31.2842 218.123 31.2842C219.06 31.2842 219.744 31.0889 220.174 30.6983C220.603 30.3077 220.818 29.8585 220.818 29.3507C220.818 28.6085 220.515 28.1105 219.91 27.8566C219.324 27.5831 218.504 27.339 217.449 27.1241C216.629 26.9484 215.809 26.714 214.988 26.421C214.187 26.1281 213.514 25.7179 212.967 25.1906C212.439 24.6437 212.176 23.9113 212.176 22.9934C212.176 21.7239 212.664 20.6692 213.641 19.8294C214.617 18.97 215.984 18.5403 217.742 18.5403C219.363 18.5403 220.672 18.931 221.668 19.7122C222.683 20.4934 223.279 21.5969 223.455 23.0227H220.467C220.369 22.3977 220.076 21.9094 219.588 21.5579C219.119 21.2063 218.484 21.0305 217.684 21.0305C216.902 21.0305 216.297 21.1965 215.867 21.5286C215.437 21.841 215.223 22.2512 215.223 22.759C215.223 23.2668 215.516 23.6672 216.102 23.9601C216.707 24.2531 217.498 24.5168 218.475 24.7511C219.451 24.966 220.349 25.2199 221.17 25.5129C222.01 25.7863 222.683 26.1964 223.191 26.7433C223.699 27.2902 223.953 28.0909 223.953 29.1456C223.972 30.4737 223.455 31.5772 222.4 32.4561C221.365 33.335 219.949 33.7744 218.152 33.7744Z" fill="black"/>
<rect x="12.4014" y="36.0762" width="15.9436" height="15.9436" rx="3.34815" transform="rotate(-45 12.4014 36.0762)" fill="#FF5930"/>
<rect x="24.8018" y="23.6748" width="15.9436" height="15.9436" rx="3.34815" transform="rotate(-45 24.8018 23.6748)" fill="#FF5930"/>
<rect x="12.4014" y="11.2739" width="15.9436" height="15.9436" rx="3.34815" transform="rotate(-45 12.4014 11.2739)" fill="#FF5930"/>
<rect y="23.6748" width="15.9436" height="15.9436" rx="3.34815" transform="rotate(-45 0 23.6748)" fill="#FF5930"/>
</svg>
