<svg width="24" height="24" viewBox="0 0 24 24" fill="none" xmlns="http://www.w3.org/2000/svg">
<g clip-path="url(#clip0)">
<path d="M8.14012 9.26296C8.64012 9.1923 9.15978 9.13496 9.69912 9.09096L10.8921 9.00696L10.7531 7.01196L9.53712 7.09996C8.96045 7.14596 8.40145 7.2073 7.86012 7.28396L6.87012 7.42396L7.14912 9.39996L8.14012 9.26296Z" fill="white"/>
<path d="M15.8599 9.26296L16.8509 9.40196L17.1299 7.42196L16.1399 7.28196C15.5999 7.20596 15.0399 7.14396 14.4689 7.09896L13.2469 7.01196L13.1079 9.01196L14.3079 9.09696C14.8409 9.13396 15.3599 9.19196 15.8599 9.26296Z" fill="white"/>
<path d="M12 0C9.62663 0 7.30655 0.703788 5.33316 2.02236C3.35977 3.34094 1.8217 5.21509 0.913451 7.4078C0.00519943 9.60051 -0.232441 12.0133 0.230582 14.3411C0.693605 16.6689 1.83649 18.8071 3.51472 20.4853C5.19295 22.1635 7.33115 23.3064 9.65892 23.7694C11.9867 24.2324 14.3995 23.9948 16.5922 23.0866C18.7849 22.1783 20.6591 20.6402 21.9776 18.6668C23.2962 16.6935 24 14.3734 24 12C23.9966 8.81846 22.7312 5.76821 20.4815 3.51852C18.2318 1.26883 15.1815 0.00344108 12 0V0ZM12 2C14.0936 2.00345 16.1334 2.66318 17.8325 3.88637C19.5316 5.10957 20.8045 6.83468 21.472 8.819L21.458 8.811C21.188 8.671 20.8967 8.53767 20.584 8.411L19.657 8.036L18.907 9.89L19.833 10.265C20.086 10.365 20.323 10.476 20.541 10.588C21.441 11.053 22 11.594 22 12C22 13.194 18.012 15 12 15C5.98801 15 2.00001 13.194 2.00001 12C2.00001 11.594 2.55901 11.053 3.45801 10.588C3.67701 10.476 3.91401 10.367 4.16701 10.265L5.09301 9.89L4.34301 8.036L3.41601 8.411C3.10401 8.537 2.81234 8.67033 2.54101 8.811L2.52801 8.818C3.19571 6.83387 4.46864 5.10898 6.16772 3.88597C7.8668 2.66296 9.90654 2.00338 12 2Z" fill="white"/>
</g>
<defs>
<clipPath id="clip0">
<rect width="24" height="24" fill="white"/>
</clipPath>
</defs>
</svg>
