<svg width="24" height="24" viewBox="0 0 24 24" fill="none" xmlns="http://www.w3.org/2000/svg">
<path d="M20.9998 17.4229C20.5078 18.5129 20.2728 18.9989 19.6388 19.9629C18.7558 21.3079 17.5098 22.9829 15.9658 22.9969C14.5938 23.0099 14.2418 22.1049 12.3798 22.1149C10.5188 22.1249 10.1298 23.0129 8.75777 22.9999C7.21377 22.9859 6.03477 21.4739 5.14977 20.1279C2.67977 16.3659 2.42177 11.9519 3.94577 9.60591C5.02877 7.93791 6.73777 6.96291 8.34477 6.96291C9.98077 6.96291 11.0088 7.85991 12.3618 7.85991C13.6738 7.85991 14.4738 6.96191 16.3648 6.96191C17.7948 6.96191 19.3088 7.73991 20.3888 9.08491C16.8528 11.0229 17.4268 16.0719 20.9998 17.4229Z" stroke="white" stroke-width="2" stroke-miterlimit="10" stroke-linecap="round" stroke-linejoin="round"/>
<path d="M15.0997 3.44984C15.7497 2.61584 16.2427 1.43884 16.0637 0.23584C15.0017 0.30884 13.7617 0.98384 13.0367 1.86384C12.3787 2.66284 11.8357 3.84684 12.0467 4.99884C13.2047 5.03484 14.4037 4.34284 15.0997 3.44984Z" fill="white"/>
</svg>
