<svg width="24" height="25" viewBox="0 0 24 25" fill="none" xmlns="http://www.w3.org/2000/svg">
<path d="M7 23.5C8.10457 23.5 9 22.6046 9 21.5C9 20.3954 8.10457 19.5 7 19.5C5.89543 19.5 5 20.3954 5 21.5C5 22.6046 5.89543 23.5 7 23.5Z" stroke="white" stroke-width="2" stroke-miterlimit="10" stroke-linecap="round" stroke-linejoin="round"/>
<path d="M19 23.5C20.1046 23.5 21 22.6046 21 21.5C21 20.3954 20.1046 19.5 19 19.5C17.8954 19.5 17 20.3954 17 21.5C17 22.6046 17.8954 23.5 19 23.5Z" stroke="white" stroke-width="2" stroke-miterlimit="10" stroke-linecap="round" stroke-linejoin="round"/>
<path d="M21.238 10.31L20 16.5H6L4 1.5H1" stroke="white" stroke-width="2" stroke-miterlimit="10" stroke-linecap="round" stroke-linejoin="round"/>
<path d="M4.66699 6.5H13" stroke="white" stroke-width="2" stroke-miterlimit="10" stroke-linecap="round" stroke-linejoin="round"/>
<path d="M18 11.5C20.7614 11.5 23 9.26142 23 6.5C23 3.73858 20.7614 1.5 18 1.5C15.2386 1.5 13 3.73858 13 6.5C13 9.26142 15.2386 11.5 18 11.5Z" stroke="white" stroke-width="2" stroke-miterlimit="10" stroke-linecap="round" stroke-linejoin="round"/>
<path d="M18 4.5V8.5" stroke="white" stroke-width="2" stroke-miterlimit="10" stroke-linecap="round" stroke-linejoin="round"/>
<path d="M16 6.5H20" stroke="white" stroke-width="2" stroke-miterlimit="10" stroke-linecap="round" stroke-linejoin="round"/>
</svg>
