<svg width="16" height="17" viewBox="0 0 16 17" fill="none" xmlns="http://www.w3.org/2000/svg">
<path d="M14.6333 2.53384C13.7513 1.6525 12.58 1.1665 11.3333 1.1665C10.0867 1.1665 8.91533 1.6525 8.034 2.53317C8.02267 2.5445 8.01133 2.55584 8 2.56784C7.98867 2.55584 7.978 2.54517 7.96667 2.53384C7.08467 1.6525 5.91333 1.1665 4.66667 1.1665C3.42 1.1665 2.24867 1.6525 1.36667 2.53384C0.484667 3.41517 0 4.5865 0 5.83317C0 7.07984 0.485333 8.25117 1.36667 9.1325L8 15.7658L14.6333 9.1325C15.5147 8.25117 16 7.07984 16 5.83317C16 4.58717 15.5147 3.41517 14.6333 2.53384Z" fill="white"/>
</svg>
