<svg width="44" height="44" viewBox="0 0 44 44" fill="none" xmlns="http://www.w3.org/2000/svg">
<path d="M22 0C17.6488 0 13.3953 1.29028 9.77746 3.70767C6.15958 6.12506 3.33979 9.56099 1.67466 13.581C0.00953229 17.6009 -0.426141 22.0244 0.422734 26.292C1.27161 30.5596 3.36691 34.4796 6.44366 37.5563C9.52042 40.6331 13.4404 42.7284 17.708 43.5773C21.9756 44.4261 26.3991 43.9905 30.419 42.3253C34.439 40.6602 37.875 37.8404 40.2923 34.2225C42.7097 30.6047 44 26.3512 44 22C43.9831 16.1704 41.6598 10.5845 37.5377 6.46235C33.4155 2.34022 27.8296 0.0169289 22 0V0ZM18.3333 31.9257L8.40768 22L11 19.4077L18.3333 26.741L33 12.0743L35.5923 14.6667L18.3333 31.9257Z" fill="#33C1AE"/>
</svg>
