<svg width="14" height="14" viewBox="0 0 14 14" fill="none" xmlns="http://www.w3.org/2000/svg">
<g clip-path="url(#clip0)">
<path d="M6.91627 8.33426C7.82642 8.33426 8.56424 7.59644 8.56424 6.68629C8.56424 5.77615 7.82642 5.03833 6.91627 5.03833C6.00613 5.03833 5.26831 5.77615 5.26831 6.68629C5.26831 7.59644 6.00613 8.33426 6.91627 8.33426Z" fill="#19313C" fill-opacity="0.3"/>
<path d="M1.97243 8.33426C2.88257 8.33426 3.62039 7.59644 3.62039 6.68629C3.62039 5.77615 2.88257 5.03833 1.97243 5.03833C1.06228 5.03833 0.324463 5.77615 0.324463 6.68629C0.324463 7.59644 1.06228 8.33426 1.97243 8.33426Z" fill="#19313C" fill-opacity="0.3"/>
<path d="M11.8601 8.33426C12.7703 8.33426 13.5081 7.59644 13.5081 6.68629C13.5081 5.77615 12.7703 5.03833 11.8601 5.03833C10.95 5.03833 10.2122 5.77615 10.2122 6.68629C10.2122 7.59644 10.95 8.33426 11.8601 8.33426Z" fill="#19313C" fill-opacity="0.3"/>
</g>
<defs>
<clipPath id="clip0">
<rect width="13.1837" height="13.1837" fill="white" transform="translate(0.324463 0.0944824)"/>
</clipPath>
</defs>
</svg>
