<svg width="24" height="24" viewBox="0 0 24 24" fill="none" xmlns="http://www.w3.org/2000/svg">
<g clip-path="url(#clip0)">
<path d="M21.217 3.02301L12.217 1.02301C12.074 0.992004 11.926 0.992004 11.783 1.02301L2.783 3.02301C2.56077 3.07241 2.36205 3.19616 2.21968 3.37381C2.07731 3.55145 1.99981 3.77236 2 4.00001V14C2 16.6522 3.05357 19.1957 4.92893 21.0711C6.8043 22.9464 9.34784 24 12 24C14.6522 24 17.1957 22.9464 19.0711 21.0711C20.9464 19.1957 22 16.6522 22 14V4.00001C22.0002 3.77236 21.9227 3.55145 21.7803 3.37381C21.638 3.19616 21.4392 3.07241 21.217 3.02301ZM17 17C17 17.2652 16.8946 17.5196 16.7071 17.7071C16.5196 17.8947 16.2652 18 16 18H8C7.73478 18 7.48043 17.8947 7.29289 17.7071C7.10536 17.5196 7 17.2652 7 17V12C7 11.7348 7.10536 11.4804 7.29289 11.2929C7.48043 11.1054 7.73478 11 8 11H9V9.00001C9 8.20436 9.31607 7.4413 9.87868 6.87869C10.4413 6.31608 11.2044 6.00001 12 6.00001C12.7956 6.00001 13.5587 6.31608 14.1213 6.87869C14.6839 7.4413 15 8.20436 15 9.00001V11H16C16.2652 11 16.5196 11.1054 16.7071 11.2929C16.8946 11.4804 17 11.7348 17 12V17Z" fill="white"/>
<path d="M12 8C11.7348 8 11.4804 8.10536 11.2929 8.29289C11.1054 8.48043 11 8.73478 11 9V11H13V9C13 8.73478 12.8946 8.48043 12.7071 8.29289C12.5196 8.10536 12.2652 8 12 8Z" fill="white"/>
</g>
<defs>
<clipPath id="clip0">
<rect width="24" height="24" fill="white"/>
</clipPath>
</defs>
</svg>
