<svg width="24" height="25" viewBox="0 0 24 25" fill="none" xmlns="http://www.w3.org/2000/svg">
<path d="M8 15.4932C9.65685 15.4932 11 14.15 11 12.4932C11 10.8363 9.65685 9.49316 8 9.49316C6.34315 9.49316 5 10.8363 5 12.4932C5 14.15 6.34315 15.4932 8 15.4932Z" stroke="white" stroke-width="2" stroke-miterlimit="10" stroke-linecap="round" stroke-linejoin="round"/>
<path d="M8 5.49316H16C17.8565 5.49316 19.637 6.23066 20.9497 7.54342C22.2625 8.85617 23 10.6366 23 12.4932C23 14.3497 22.2625 16.1302 20.9497 17.4429C19.637 18.7557 17.8565 19.4932 16 19.4932H8C6.14348 19.4932 4.36301 18.7557 3.05025 17.4429C1.7375 16.1302 1 14.3497 1 12.4932V12.4932C1 10.6366 1.7375 8.85617 3.05025 7.54342C4.36301 6.23066 6.14348 5.49316 8 5.49316V5.49316Z" stroke="white" stroke-width="2" stroke-miterlimit="10" stroke-linecap="round" stroke-linejoin="round"/>
</svg>
