<svg width="24" height="24" viewBox="0 0 24 24" fill="none" xmlns="http://www.w3.org/2000/svg">
<g clip-path="url(#clip0)">
<path d="M21.2 1.83893L12.2 0.0389274C12.0706 0.0130659 11.9374 0.0130659 11.808 0.0389274L2.808 1.83893C2.58048 1.88344 2.3755 2.00562 2.22812 2.18456C2.08073 2.3635 2.00009 2.5881 2 2.81993V12.9999C2 20.9999 12 23.9999 12 23.9999C12 23.9999 22 20.9999 22 12.9999V2.81993C22.0003 2.58923 21.9208 2.36552 21.775 2.18673C21.6292 2.00794 21.426 1.88507 21.2 1.83893ZM11.057 16.4709L6.586 11.9999L8 10.5859L10.943 13.5289L16.892 6.58993L18.41 7.88993L11.057 16.4709Z" fill="white"/>
</g>
<defs>
<clipPath id="clip0">
<rect width="24" height="24" fill="white"/>
</clipPath>
</defs>
</svg>
