<svg width="24" height="24" viewBox="0 0 24 24" fill="none" xmlns="http://www.w3.org/2000/svg">
<g clip-path="url(#clip0)">
<path d="M23.5072 9.818H12.0522V14.727H18.5442C17.5072 18 14.9442 19.091 12.0002 19.091C10.8597 19.0924 9.73567 18.8186 8.7235 18.293C7.71134 17.7674 6.84089 17.0053 6.18603 16.0716C5.53116 15.1378 5.11119 14.0598 4.96174 12.9291C4.8123 11.7985 4.93779 10.6484 5.32758 9.57658C5.71736 8.50473 6.35993 7.54272 7.20078 6.77217C8.04162 6.00161 9.05593 5.44524 10.1576 5.15027C11.2594 4.85529 12.416 4.83042 13.5293 5.07774C14.6427 5.32507 15.68 5.83731 16.5532 6.571L20.1202 3.171C18.6835 1.84852 16.9458 0.896627 15.0578 0.397932C13.1698 -0.100764 11.1887 -0.131197 9.28633 0.309276C7.38395 0.749748 5.61779 1.64782 4.14115 2.92554C2.6645 4.20327 1.52197 5.82205 0.812711 7.6414C0.103454 9.46075 -0.151101 11.4257 0.0711364 13.3657C0.293374 15.3057 0.98569 17.1622 2.088 18.774C3.19032 20.3859 4.66932 21.7043 6.39666 22.615C8.124 23.5257 10.0475 24.0011 12.0002 24C18.6172 24 24.6002 19.636 23.5072 9.818Z" fill="#114BE0"/>
</g>
<defs>
<clipPath id="clip0">
<rect width="24" height="24" fill="white"/>
</clipPath>
</defs>
</svg>
