<svg width="24" height="24" viewBox="0 0 24 24" fill="none" xmlns="http://www.w3.org/2000/svg">
<path d="M23 4H17V1C17 0.448 16.552 0 16 0H8C7.448 0 7 0.448 7 1V4H1C0.448 4 0 4.448 0 5V23C0 23.552 0.448 24 1 24H23C23.552 24 24 23.552 24 23V5C24 4.448 23.552 4 23 4ZM9 2H15V4H9V2ZM16.555 14.832L10.555 18.832C10.387 18.943 10.194 19 10 19C9.838 19 9.676 18.961 9.528 18.882C9.203 18.708 9 18.369 9 18V10C9 9.631 9.203 9.292 9.528 9.118C9.852 8.944 10.247 8.962 10.554 9.168L16.554 13.168C16.833 13.354 17 13.666 17 14C17 14.334 16.833 14.646 16.555 14.832Z" fill="white"/>
</svg>
